<mxfile host="Electron" agent="Mozilla/5.0 (Windows NT 10.0; Win64; x64) AppleWebKit/537.36 (KHTML, like Gecko) draw.io/28.0.6 Chrome/138.0.7204.100 Electron/37.2.3 Safari/537.36" version="28.0.6">
  <diagram name="PÃ¡gina-1" id="_gnl2ysTWQeM7Ta6YmYn">
    <mxGraphModel dx="1510" dy="1729" grid="1" gridSize="10" guides="1" tooltips="1" connect="1" arrows="1" fold="1" page="1" pageScale="1" pageWidth="827" pageHeight="1169" math="0" shadow="0">
      <root>
        <mxCell id="0" />
        <mxCell id="1" parent="0" />
        <mxCell id="m_MTwsGSsQdvvw59oVKy-12" value="" style="rounded=0;whiteSpace=wrap;html=1;" vertex="1" parent="1">
          <mxGeometry x="-650" y="150" width="450" height="120" as="geometry" />
        </mxCell>
        <mxCell id="m_MTwsGSsQdvvw59oVKy-2" value="" style="shape=image;verticalLabelPosition=bottom;labelBackgroundColor=default;verticalAlign=top;aspect=fixed;imageAspect=0;image=data:image/png,iVBORw0KGgoAAAANSUhEUgAABlAAAAIPCAYAAAAM45PlAAAAAXNSR0IArs4c6QAAAARnQU1BAACxjwv8YQUAAAAJcEhZcwAADsMAAA7DAcdvqGQAALplSURBVHhe7N27rtrK+/Dx579vxEkRLQruAaUJTTq4AKpQpUqDRI1Es6pVkeblAqBLQ5qIe6AgSpFwJb+38Gk8nvFpxtiG70eytPcK2J6TsefxzPzfy8vL/wQAAAAAAAAAAACJ//Q/AAAAAAAAAAAAPDsCKAAAAAAAAAAAABoCKAAAAAAAAAAAABoCKAAAAAAAAAAAABoCKAAAAAAAAAAAABoCKAAAAAAAAAAAABoCKAAAAAAAAAAAABoCKAAAAAAAAAAAABoCKAAAAAAAAAAAABoCKAAAAAAAAAAAABoCKAAAAAAAAAAAABoCKAAAAAAAAAAAABoCKAAAAAAAAAAAABoCKAAAAAAAAAAAABoCKAAAAAAAAAAAABoCKAAAAAAAAAAAABoCKAAAAAAAAAAAABoCKAAAAAAAAAAAABoCKAAAAAAAAAAAABoCKAAAAAAAAAAAABoCKAAAAAAAAAAADNRsd5XdTP9rD812cj2tZKz/vccIoAAA0JqxrE5XuV6vch3EnUzHxis5XcP8Oq2GdDsVGfr5P4rZLmxzuW0nfWqFs92DXRu6rv/PfvxHQftFE4NrfzPZ5ep4n+rUQO9fm14/Bld/gC55vn7R/ryZ7a6ymYhMNifpdVbOdnLdTESChRya1JmO/CfqDaBtK4kKjVen/HdqfF9l3pfpB0/5Ub9WjLApDTNzTurfS7ZKx6n8w51NQ+WtID+r5x8A5MXXkErXOsCrsaxeFxJE/xcsvg7st2vo5/8IovuqzUT/B7Su6/r/7Md/BLTfZ+V+70n7g8v1g/oDdGfY7c/998uf8eok8SXwvJ7K9qJ/IlYQANO2fLqqBNcr9NUflzJan8P/nmwK9tUv1UagBAs5FGZQiej7hdHEKIhxWMRNRzWRTe77F9l+28st/sQXe1AhNvsaN8yb7L9txVqfmooDMdYf7olsri1FAmvnHwAoosCv+RoCAP032x0kvoTd9nMZjUbatpSj/iUAvUD7fVLjlbw+5b3nUZaZ+j2Xfdyxgdq4fgD3xPVLpGe/X7Nd0o9zXo9k2eEFT70eF57LcSnzuOJMNuZAS89kAyi3vcz1H5t5GqQojwydZa1/P44qiUiweDUHD8YrOR3i4Ia+j7XEewgWh2wQ4LKV7+k/yteiUxuv5Esc1zh/t0bjzmv9xza7WQt/tpNrkgbLftS8FAmDQFPD55Q8M+5nqgV/muYfAAC9kX0x4rZ/G9jD7tDPf+hm8im5z1vL1Hajh5Z0Xf+f/fhDR/uFC9rfc3O9flB/gO7Q/tzNZJcOPbH3WRuYA87pVmdfImG/eHwqt/289PuX7VTSgSj9nzmpfATKZStTNaI4+WIOgtioQ3MkkI+f9S+rQ7bOss69HXCUpXJ8PQhzXKYBgqIMT0efnGVdVop1jVdySkadhAEM4yEuW5mOioZSNeGWfwAA9MZlK9Pohq3+A3APDP38h2z8Qd5F/3n+aboJQ+u6rv/Pfvwho/3CFe3vefm4flB/gO7Q/pzMdhsJe6Nb6OuuJRvIqVqWaZ/+RDaFAza6Vx5AEQmjgulQD0MQpMTvv0lEMXj/kv232VdleI/e+R9To5L68Y/ylkZ35IspOpCJgvmPaGamBpvb0tAS5/wDgAeSrGnV0nSJAOy6bH8v75N7sb+/9X8EUIr2C2CIuH50e/0G0B1lpqU2+rqrG8vq1DSQo/Tp1x2wcWcVAyglQRAHs3S8pRS+MHD5Ib/iURQfP2fWO7lsvyvTVOmLDo1lldYo+VYxCladOmTUPjVYW3zk37CpCyClNwyznb4Aku1mIruAkmmKs3hhqNx+khuVaGGkaA0J/XOZczkVr9WTPVZ+XyaZ7yj7z+2r5Nj6Yk9Vj++mavnZR5d1lX59/4XBcqWuXC31TAz7LDq+TT7vLMfUzklfu2myye+jOA/r5d9DylwD4i2dA7SU8fv2uq8z1x9D2Rew7cNav00PbHrdKjyHgkXsrAdNxfU93b9hfxX2E6udftPxGhxXrG23uPxz6Tfkfd3zeFqO7U8a1R+doT5V+LLtuO1ffw3nW+O83euv2/F1tny078rf8Zu0fyhov24c88+WBuNvv97OlSmwjfeeV1s+GvK78PNZueuPaX8F+0nabJXPFN4/u7Hlfa36Yyz/avevXo7fCUN5x1tBmcZy9Uev1xX3M1Su6XdpP+Hfo/qVOW56zcrUy4JjiNjqf8n1z/n5J9WH339bOy7Luubc2l9Gg/JrXH/1zzX+/VI0OH/V+PPHZDai7/fujFaMV6/Rb0azQQVpn34gi8K1ObpVPYCiuNUM7aeFqg+rHMuHdLxlSSZf5M+/6D+D95IN4RxlmUwTpo1CUUdofG9h4fjZpyjKpqftHnzl3wN5CS9qWl9w2BAP7f0IvPu0U6Zxk/B4rytZ7bRzCRZyMJ1EdDE2L+Adnrt+81BktjPsK1jIwXIxDn9EbDfK9Y/fmLX8JrKp8SN+j/SrgVsRkckn055D6jXQ+OPmofzjG5983oXaXAOpSf49lugm0Jb5pYq+H9b9wrIrrD9h2ZfevJXsY7Kp0v6iIJpyMxkLFofW60DYBuI3XxSTTfmNqJf0NxTdOBuLPyr/0vKL26Eh72WyaT3vh82x/Ymf+lNYf63lF5677bjJ9bfs4D3Qaf31UH6NeWr/z4v268Yx/0ryrtL9Rw8Ull/Z/UNnfNSfovIv4+P4j6HT368e6Cb9gbx/mckuc9xw+p/x6pStl9bFqYvqf4XrX6Lh808ffv9LruFVfv+646f8uqm/4un8Z/I1LrvS/uAWjVfyGp3Hed10yYqj/Ey69D/19He3TgAlGRop8u9P9RzJdGTe9vKWKdUXeR//U4WgzO+/8RiYd/JBr0vHN2Wdj3gUSnb0SfbYfoyTCEYXQ0Y95t9DCGSxMVz8FJMv7VwEg8kkf9xgIQvj9VC7IIxXcjJdtHW24ItOmbIuLz/N3Xh1Kvi8IljIodUfkQrlV7DOUeJu6Vcu8mIo14TywyaGHzcP5Z+7Ubyj5vn3KGaySx66b7Kf64uvKWuIGanDXfXvq+tXHSw3sOrDQ7gGV/b4o2RhNiutDp7XDfYhgSwOcRAtex7pMmgLyb9QcpRlrfwyCxaHqA1k83CuTPFpnVPVKf2O5z/bKTfOevmp689tCm+ig8UhaofZ9Bfn/ZAZRrwl+Rh12qj/Fm35PHRtf671JzLZGOtv1fIzLwCZrhFo7zxw5Vj/I83rr4fjO5Wf4/E9tf/hof2qumu/rvnX8P5Dmet+NBrJaJ4uHmzK/9FoJCPjVCCO7S/idP/QA83rj+v9a6j58Zvydf3wV3+a/X49hi7TP9lsZBIfNz7guy9hR+55nTmP/IuOrte/WMPnnz78/vv4/WvMtf35Kb/a9dfb75ef8/ey/pMz5V6g5gL2umMaQZFck+2JigEUJRBROFVUFClVtvS6sJbRVBsBohS4O3WdlqiTNBl9cpP9t2qjT6xDr65X4xsoL3EEowte86+hKGqdzyvbls/DNqQ3c9rFOPgorS0Bc9vL3PBDE56LciOpBbDSNXTEcAHV9lc6J+B7+Rq11eQirlzYRbQp3JRocUg/vnrehh+Rlqg349n8zAdAsu6b/vQiL/YLvTJKTeQmey2S61z+uTSYH2bSB8GIfgOgVVzjTUDuGq4fWz//4vx7BJlF20b137jIDnfVv3+R7TS9hhkDwOqNk2UdrOPSdvMm4e/7a7YDxPTR49L895zzWkaj7HmkC8OJvGs1ep8vg8t2mrYhY5DTc/pryb7kMdfyLSz/9BqQn6JUl0+/mvf5h0c4tz+v9adJ+YUPoOZFGo+yVH7/2m17PjRJvyuf5VeX7/b/fGi/bpzzz/n+o0/y5Vd+/9A1t/rjev/qevzHks/D8vb/SLpL/23/LTxuvNxAEEgg6foL6QvEWc7XP12t558+/P77/P27P7/ld//66+v81em77H307Up+S257mbtWluNPS5vpj/IAynglJ2VqFtsNklXUqezj5umSzEFlcVwqF5pXOcUXprusTfJPagzM6URp/j2I236u3Mxd5Ee8+Eur0iBd5oc6WXfntxh/v5VFn0TEOORNvYCLBPKxKAIUTGQShHmQNLnLVpLYokhmCrd8571+/OwNsLT0I6I6r7M349n0l6zhc+/0KyPfxPIDl65TJCK3X/JD3b+H8s+mIZ9/sct2avy7C+f8G7x0Daxmi7aN5fPH+MfV9julvBxQEgBudKOhTnNZ9/ddc9vPLb/16fXP5xpqWWdZ5x5AQoVvs3hMf20Vpxg9vsVtyHD+CVv6tZFyDyN8uMwEeJOeLj2Qm27Za6CH9uet/rRUfur6d621PR9aSn8Zb+XXgNf2PzS030pabb8e8k/R6P6jN2zlV3L/0HeF9cf1/rWCwuO78HH98MlWfxzb/2B0mX7DtNiV6rTf61/t558+/P57+/3rgs/y66L++jv/5GX+218pn4/ILFgcDC+9V3z5fbJJBkwU1eXqLG2mR7IBlGAhBz3TkmFd4Q+S8dqQCKOX4Q9V1OnncdqWdLosu/RCE0gQSHjeNebuMr51nWymxhXr/7RYVfKvNv0t9tKtKA89OK9zN0h3CRzpHePJn38UX0iUqfFEbCOgsnPyll9M8jcTx6WpDJQ1dMSeBvUGWERE3n3w0p6NjMP+tB+w0jV87pl+LUCn/8DpARL9h8W5/NMHIBGRtqYqNPORfy4MQ/gzv1mWYfyefo9ERBlddJNfxsSXGH+W5P6p6LWR+K0qCSTX/NUH1MWh9qKdaYDP/c0V+/SeysNuvoH7oU+Np0ryL89n+utKf5NLjn35I/GvmDUAWZT+mLe2J/1of648tD9v9efu5dczHaXfW/k14LX910b7FZ/l31H9deIh/1zvP3qjqPwK7h8GzfX+Fami+hPz2v57dv2+e/oVxmNXqNM+rn+Kus8/3f7+h7z9/nXBZ/kZ65DGd/31ef5dO6/TafI2nu8BfOe7J+UjUCQOKuhvFpdR3jwOFvJqyk3louDNZSvflFfCk2F9LbENC7yLNvIPd9VGUKv8rYtYuoaOiIj8+2MJ9lwkE4MqDWB0697pzy4mnx0hoi8er/9GOpe/No1facDOKz/599SUAJo5eKY/FJlkh/nqD06F86aqHN5c6T3lt9L6lmwH6a/+1pBlBCPceGl/kdIybFm0EGl+S0eQo0AH5Uf7d0T7deMl/zzdf/RZlfuHrnVRf1RdHx+oy8v1r7le/f6XnkMPdVx+znp2/qap3/MvHtsdl/F9QCCLQ8mIlQeQDaDE021pW+MXRpWpcwqn3RH9rWqzdL2R4umy1BEH9oiwb91GBn3mH4aswlsXD62L9GdHyKTXOmV4Zq3ADqoxDOEfqWveWIbx6+u4OHAOgHkT54W25oxyY/YQHRlN9WG9sIfTffuDSLgIsLqALlAF7bcfHqH9Pvj9R6/vH5rXHz/3r82PDxdcvwH0yUW239Lp5ja+fvStL+d2q9IIFBfJlFrGxYOVjsfSxdmUqWqqDLW6k8uPX8nQXt9D68r1IP96uoj8MFluePStcURTp73VYB0mp0/VdO83Fdo6vr/0p1MHSjqNlzI8s1pgp0H5a6PQygLVfvnLv6Fynh5QmRqiePrIdCtu/uGCnvFnkymhqwyrfZKRQdaXKrpMf+mx09Fet7+P0np6wGf7Ky3DdqSLAIfD6PXzHY3Ut8Nh1VH5iVQ5Nu3fiPbrxmf+ibjdfwyE9f6hIy71x/n+1fH4QKe8X/8aKv3tucPvf+k59FBfyq+poZ+/iToL1GQjp0f40bdoPYCijkIxLbCcToFVsjhSMldnyVxx96bO7z/5cvcbxMHnX8/kRvLMdnJocfxx9gY2v0B4u/SplSwLVGUCAR1Eg5VFzkR8Ht9j+jPrfASy+DrLTt9lWSDMvfy1IIYxUN0Wj/k3VFXmJtXrr6rlqSGOS/WNNHP9qvwbMmBpW8xPo9dl+isvTqv8fvetA2fQPLS/LutP9sWYtceXK55Hl+VH+3dE+3XjIf+KVLn/GIKi+4eE9QUibZ1Crxzrj+v9q+vxgVgX7afl61+ZPvz+d/v756jj8nPm8fyTcuxBIOyynSYvTwSLQ8PRp3cIGjpqP4CiXiQMnXvq+gGmAEtoJrt4eOhdF0mu4iLbOEIkgSxebWloR+f517dF5F2pI3lmu/aHJR/fMm/nBIuDXC1Xm/Hq5H0BuPQHXML6e9DeEhuv5JSZf/Eme68VqESuDPwe31/61euAiEw2mcCbNWjpXP7aIvYSTplgivrPdlfrvkWyb0OIiEw25aPF/OXfQJUt7jdeyanwGpKOIgwWX0vzu5GStbIyoyitvyFDNpOvcVs0jL7sNP3HnxV+v8ey+pL0Utg7cNCAe/vrtP5UmVqmsAMMnZYf7d8R7deNe/6VKrn/SHjsTPKr+P4hYey4GsvqpIzQ8M21/rjev7oeH4h10X7ucf0r0oPf/05//5x1XH6qRr9f/s4/fRm3H4Gw4zKdzrPR6NMWg4a+3CWAonYS5hvoUd7ifwwWcshN8TST3TW+gN5k/62H8zcel+lQ5WAhh6ulsoxXcrL9W2MPkH+dyq5fITKRTTzdWNGNozdax7uIyGRjmPrs2s5IGK0DX18AUl+86rb/ZhxJ4Y2edq0MvB/fZ/qVm6GMwqCle/lftt9yQ+SDxSH3/dLqnHvQVdpCvOkBHJ/5N0jK9VcfrjrbRem/yfmsFZAinf4tzG9zjGssq5M5ADZenQqmRlQfQCzTyKlDbgt+v2Y727n1hGkay/FKTsnv31nWpjckO02/9vutty8Zy+qULsJ6Xvf8BYQBcm1/ndYf9ZqdGwHN3PSVdFl+tH9ntF83rvnnfP+RSEdTB4uD8SWgVjW8f1DfIs/M+T5eyantBdSd64/j/avz8fHsOm0/Hq5/bnrw+9/l758H3Zafqtnvl7fzV4NxfYigyFGWyujTuoMLZunQRu9BQ1/uE0BROwmNo1CmMk964fROO6Xzfz5tvfMtXvDOttnq73GpzveqdSLGm9aZ6Euf8m+IMutXGJzX+YURvTouZaROFnxXF9lOK85Re17LtMsK1MrxfaZfuRlS3H79KA5aOpd/jTQUOsqy9nnUOHZp/g2TGsDKBK6iB8fzeipvf7PfybhsZarku/k3qOxBQr/u5793Xtuv/+qQW9vvV1vPwWEHjPmcc8HE3AOGypAHyW/uTfZz+8OHS/pdzz9z7GAhB8u+zusBzH87RB7an0v9caNes/Xjph1/57qX9Rpc678rH8d3KT/X49P+HdF+3XjIP+Nvr/a9ovuPkLoArfklIFMHkmv7SxnSUOX+QX2JSD1e/N3zWnk+z3M7f/f643b/6n78rrnlP5w5th9nXq5/zfXh99/l98+1/bh+v+vySzX7/fJ3/nXWxL4TPThnSr9RS2t2e3anAIoWHTNMDXPZTmU0MndU3/ZzGY3Kbr66d1yOihdMu+1l3lI6HiH/OnPZytRUbre9zO+1aNNxKSNt0UXdeT2S0bSNEUQX2U7VuYo1UT50Nr9t68f3l351OGzoLN+rNDzn8o/SYLkGSHwdKEvDcVm4DzN/+edFMq3gva55YfpzZVfn+hGVv/1B4Sb7uTkPL9upPe8lfACpsvhc8e9XePyyffRRuDhfeV3oMv3hsS3trmL59cbd258HDu0v1ln9OS4t7T8659FS3jILZcGks/LrW/un/Rq0WP59aL8O+efr/kOk4FmsQ+X3D5b7v4I888q5/ljOv+r9q/Px4dXgrt+W+nev9iNu1z8f+vD739nvnw8dl1+i6e+Xp/NXR7N8qTgCpm2Z4NxkYw4iacarL+mL//bpWzr3fy8vL//T/wgA96FOMRfdLJT8SPSatubHbT9/yFEXQF/MdtHbUUO/dgAAgLvh/gEA8AiS3zM5y7rva04bKX2CPf9Nvt8IFAB4aGNZvarT9FUcfQIAAAAAAADUkC7erq0pNBCzXfGaY31CAAUAnGUXexORdhZ8AwAAAAAAANR1qSabyovZ98F4dUrW2hlC/xkBFAANzGSXW+iqzpZfB2lwZjv7Il/ndX/nCwUAAAAAAMDwHZfJuiPB4iCDGIgy28kh6kS77eeD6D9jDRQADWhrl9QWz8844DVQZju5xuFy1ZDSAAwcc5gDdfn6/QZwf7RfX7h/6AL1F2iO9oNy6XooIuf1qL9BCXXt4AH9DjMCBQC8uMl+PhrMxR8AAAAAAADDd1yOZH3uefBEROSylWl4ooPqP2MECgAAAAAAAAAAgIYRKAAAAAAAAAAAABoCKAAAAAAAAAAAABoCKAAAAAAAAAAAABoCKAAAAAAAAAAAABoCKAAAAAAAAAAAABoCKAAAAAAAAAAAABoCKAAAAAAAAAAAABoCKAC6NdvJ9Xq1bruZ/oUS6v5OKxnr/w70yGwX1dXaFR2hmewM143GeTpeySn6/mnF1QNjWZ0c6lNdg6t/tD+0wHpfuJMGtao1/H73TNfXj66PDwAAWmUOoDS4cU1uIht0WI5XJ8OxzJvxhkS5YSnbcve4mbSexLT7UPqQmO5DebCus+l55HL+ABQz2W0m6f8GC3m1N+peiq+HtHXg3sayel1IEP1fsPhqvefpI64dQzfs+udu2Omn/fkQPVep93FAJV1fP7o+vhuuXwAAlMsGUOKOfOuN60Q2hUGGoQtk8ZU7BwAdiIK5h0X8+AWg3FGWo5GMkm0u+5v+mScwXskr1w7cHe1PhPbny2x3kDgbb/u5Uq/ibSlH/UsA3HD9AgCgkjSAMtvJ9ZC+OXFe6zetIxnN99LGc9FlO80eZ31O/k0/j+n2kvmuTv+8vi3L7rwnn2q8MXKR7TR/jKLzH41GMppuxZYK4+frnD8wNMeltf3Ud5Sl+v3bXr6VXDMAIHSR7bf0Pue2f6OzDnf07PXv2dP/7GbyKX5/77wufd4Dsrq+fnR9fAAA0LYwgDJeySkZdXKWta2j/rKV6Wgqj3lPe5PbTURkIl8ed4gN8PjUgExBsBIAci5bmUbXDzrwcHfPXv+ePf3PbPxB3kX/ef5peggFSnR9/ej6+AAAoFX/iYjMvsYjT26ynz/r8Oh/8v17+Ob60OYtBYDeSNZ0euTpHgG0gusH0J0u29/L++RZ9O9v/R8BAACAbv2XHTL9/UFHl1R0/ClhCGUin4ig3MlMdterXLUHttku/lv+37LU71/lZPhQvDBebj/Jg2K0aF60BoX+ucy5nFaSP0Iqe6z8vkwy31H2n9tXybGTxTdrHt+3fNmFm6lsfMjlk7bVWRDRvK+i/HOov0r9u17za09NNvo+yutA/fMfvjivk/ql5+v1KteKlSBfble5XnfWgHr4+Sh/M8dNv5Mpk0rnkb2mlX7P1OFlyINK7S9zDcyn5R7MdbheO67HkN/xVvegDfKvcf3VP6dMwWq8dtj2o2pw/g/FmP50TQaTxuWX8Fj/PKD9VSw//XO0v+55yD/3+m+ozxW+bDtu2/dvjeu/xtf52/ZjPwVDflc8bz/3b82Pn9Og/jYuP/1zHq5fde+fAQAYov9k9kmS+MnTD5k+ylu0+uXkS3FHJVryEt7UaX3JIhLI4lB0E+3m3aedMo2dhMd7Xclqp51LsJCD6SSim1HzAuDhuZd1fqtmO8O+goUcLDej4Y2rraOn/vGbiB808mUXChaHap24XfBVfh3VX2/nP3CzXfZBMDHZFKc/enDNl5uIyEQ2hQ+Pgbx/mckuc9yJbHYzGa9O2TKZbArrQNiGNslvcmKyqfggGgVRDXkQLA4FeRB1AhgzIEx/6223sA6HD/VFedctP/nXuP4683P+w1WU/uq6Kz8PaH8dlp+f839eHvLPQ/0v/P221p/w3G3HTe7fyg7uQbP67+n8PeR/M/7u35rzUH8bl58HTvfPAAAMy3/jD/GMswyZFhG5/PgVLgAXLOQrv/d3FshiY7j5U7QV2Aomk/xxg4UsTDeEk0/ZjszxSk6mm1adLfiim+0sN6IipjV6xqtTwecVwUIOLd1E5x40hsRb+XVUf72d/7AFi0PUDm6yn0dr4IxGsg6HFdqv6bOd8uAargGWrKEzmksUUxeZbKwPsZPNRibxceMDvvsir4tA5LzOnMfENrxxsonaUPb85+kJyKaw/AJZHOIgajYdxXkwltUp7vTJHltNf7A4tNR5kK/D57V6DloavDvK0lbmlfjJv9r1V5lrfTQayWieLl5ryr/RaCQj4+J2fs5/uGaySzo99fRn86BI7fJLuNY/D2h/9cuP9ufIMGI6+R2OOt0zb7KHW/432EP++aj/lt9va/3R3Pbz3DFHo3U0K0Kbnfeh2vVf43T+Tvnvev1wvX9zPb6H+tuk/HxdvzzcPwMAMCT/vbwv7XYbFOvQ02vFoaSXrURLobTT2VnC+fzr0ofxlm4tnINBejOu3YwGH+VzW4Vy28vccKMenovyICDv5INyDukaQpK7ec3cwIqITL6UDGd/L1+/hDejyU2scmMrIhJ8/JzWy/EqvMlP6MdXz9twE+1D7hzMD1NpR7Bfl+00eyy9AEv4Lb9QpfqrP8Bo5218iJluRZ9lsY3zH66zrEfTzFSUx2XaBvIPv2NZRe0tbP/6GmAX2U7TPCxaH+u2/xYe9/ffKAgfSCBnWUcPnb//Vqn/+fO/bKdpGerBW5PzWkZaOtQ8eKdevERkvHqNgi432c+zxw7Tn9bhdn4Tx7J6jetw+ABuek4/Ls1/75rf/MuXf3H9def3/Idntos7r/J5X19+H22XnzvaX+r+5ef3/J+Pe/75rP9N6k/YAW9ecPwoS+X+X//t9q+L8/eZ/835uX+rz73+qpqUnwt/988AAAzFf+l//pM/pvufJ3R8i2742uysh9VtP1duxi/y41c7N65ZN9l/CzunMzfKt718C++qxXj/PF5JfP8oInJe6zfA2RtYkUA+FlWqYCKTIMyD5GFBCeqFn3kvL9F/5jvP9eNnH2CkhZvo7DmEHf+mh6nLdmr8e6d8l9+9628L5z9cZ1nnHuBERI7yU20/qtnXZNq78/d8cCqW/CZY18c6y3c940Xktn8znI+N7fxFjkkCbMcP3fZz81uCyvUreB9fPURExvL5Y5IBuboTusg2vgC18ZuolsHanP7+8pl/tvIvqL/OfJ7/EKVrANZrqyZdlJ8HtL9IF+Xn8/yHJuxcNb/8kn8RJN6y95Ae8s9b/W+p/lx+SHwLmf3t9q2j8/eW/y583L814aH+JloqvyLe7p8BABgOJYCSfat+qIxvbSeb6ebCILnhC2Th/XX9Yl7Ovw79LfjSrYVzUJ3XuU72y59/mf9vxe2X/DDc/d1+/bDeFIqIyMv7TPDAPIIoOyey8SEiI38zf1yaymAsyQx8Yk+D+gAjIiLvPpS8xVRH2gElEgac3lqtIJ75Lr9711/f51+LYQqOqzoHs2UajpamkZPzz/Jrk1b30yksz1K4BNjlj8SlaAxAGo99k1/GBmlh3EckfiuyxD/rWxBKZ5UaYBl/luT5vSgDkuMH4q36RGbJBaSkDPrIZ/4VlX/M67Xb8/nX1oPrR7IGYM22atJF+XlA+4t0UX4+z7+2HrQ/Vx7yz1v976L++NTR+XvLfxfGtHv4TSjjof4mjGnQeC4/b/fPAAAMyH9tDUsdNuWNj4ef8gYu0htIf6q/9fQimRn4/v2xBHsukunDV0awOBt/kGwMpyTg1DNtlN89Df38u5ZMYXn7K8VLgFlGoN2L8gBqngajISUAZw6+6Z1qLSotgx7qU/41MfTzhz+0v/sb+vl3zWf+dV3/o4W481u8rlnPuZ5/1/nfBZ/1twODuX8GAMAjZQRKwZsNz+j4Fs07+shT3qB/7vDWE+CFYQqOkbpmj2UaDsM6LiihBSqB4ev++kEAGs+r+/YHEZGZ7K5XZSHuoRn6+QMAAFT33+XHr2RqEIZWqtK1Cx564bOeLiI/TJYHTn0zrlHQhPZWj3V4tj7VV9nbQjUob8aLaAvcD869y8+3oZ9/h0pHZaWjvW5/vbWeRuzTdDWgTA1WPH1kurVWfUrLoIf6lH9NDP38HbU6veLQ0P7ub+jn3zWf+ddR/Z/tlClWz+vc+Y5G6SLifeTt/DvK/075rL9dKi27/tw/AwDg6r/M+ghMV5Vx2X6PFl9m4bOhyK3vMNvJodL48WayHTD3Hq2kT81lWWBQmWdXpGiqrya0IE6wkDsvG+Sk2/JzN/Tz71rVxdnTtRI8BzAqGn/+GE3hUDLXdF1tTQ1WQzqNaEkZ9FEP8s/J0M/fVZW55ZWFch8R7a9DQz//rnnIv27rv7KG4Hk9wJdb3M+/2/zvmIf626Wh3D8DAODTf5n1PiSQxWuPFgjs3FHeoldnJl++POYUKn1bRN7V5FM6Qma2a39YeTLVWyhYHOS6M99Jjlcn7wtwpjewErbfwykbBB2v5JSZP/cme6+rvKcjtWKTzVVOhkjsbHe15k1nOi6/DG2h8MmmwmivPp3/EB1/RkFykckXW96MZfWly4VOZ/I17sGtslBoLUeJLyFdjbTMjIK1lkFfdZ9/iUadMT06/y6ULW47Xsmp7XuIjtH+PKH9dcA9/zqt/1Wm5uxzANfD+Xea/51zr7/eNLl+DeL+GQAAv8I1UI5LWScxlIUcrlonbGy8kpPt3x5UMgolCHq5iBvSG9DQRDbxdGN36fhQA5CRycYw9dm1nZEwWgd6GERRjqstPnjbf5Ot5xeALttvuSH6weKQS7+5OMayOml5pX1QX1wxGx+I5l9u/P2Oy0+lTYeWqcvxlguA9Oj8BykNkkuwkEMuf8eyOqWLoJ7XLQaQ1eBvbLyS0zWeIuMs6wZveJY5vsVz3of1zRx/i9qp+R/dXLbyTS0Dyz3GbGc7t251nn+JdDRgsDgYg9gm/Tn/Lijtf7LJ5tlsF/1+3uR81n7gHgntzxPaXxec86/L+q/e8+VmgBjA2iI+zr/L/O8B5/rrTZPrV4/unwEAuJNkEfnjcpQGUfRO2HjTOmONgoUc9O9ltvxb1ePVKfsZ5YZL7/ws+1HXP69v9e8/9A76dvk//8eX3oCandfr5C2ZVhyXMkobz51dZDutOMfweS1T39ETkXrn0Eedlp/qKMsm59Gb8x+my3aqvUCgXnPVh7+25582BMyS39yb7OctPXxetjJV6o/5NyjNhzZkysBy/2Hrh8ndP6jnqgcTcw/47t/vQ/6FLrL9lv4WmoLYxg6Y3px/N9QXADJ5FlW483oqb3+z3/HJuf55QPvzgfbXCQ/551L/3aj3fPpx0xcnzr29vfNz/i7573z9cOR8fA/1149m16/+3D8DAHAfSQBFoiBK4YJvt73MR1Pvb7D3XVkHPTp22crUVG9ve5nfa9G941JGIzUImXdej2Q03XpcfyR2ke10JKO5pZ5G+dBkfuLqonMY2YNVt/285XNw0Gn5KY7Lwjy06sv5S9weRzIa0G9F+NtnyfdoYdS2qu5xWdB243JrOy+j+jPPXURjN9nP272GFN9/hMdv8fBuepB/IgW/hWX6cv7SxfUj/O3KXTvvef/QA7Q/D2h/3fCQf53V/+PS8vsfnfNoKW+ZhQZ7xtP5d5b/feCh/nrR8PrV5f0zAAD39n8vLy//0/8IAAAAAAAAAADwzDIjUAAAAAAAAAAAAEAABQAAAAAAAAAAIIcpvICnNJNdsshjE2dZj1pa1BoAAAAAAAAAeoAACvCUCKAAaIrrB9Ad2h/wvGj/AAAAXWAKLwAAAAAAAAAAAA0jUAAAAAAAAAAAADSMQAEAAAAAAAAAANAQQAEAAAAAAAAAANAQQAEAAAAAAAAAANAQQAEAAAAAAAAAANAQQAEAAAAAAAAAANAQQAEAAAAAAAAAANAQQAEAAAAAAAAAANAQQAEAAAAAAAAAANAQQAEAAAAAAAAAANAQQAEAAAAAAAAAANAQQAEAAAAAAAAAANAQQAEAAAAAAAAAANAQQAEAAAAAAAAAANAQQAEAAAAAAAAAANAQQAEAAAAAAAAAANAQQAEAAAAAAAAAANAQQAEAAAAAAAAAANAQQAEAAAAAAAAAANAQQAEAAAAAAAAAANAQQAEAAAAAAAAAANAQQAEAAAAAAAAAANAQQAEAAAAAAAAAANAQQAEAAAAAAAAAANAQQAEAAAAAAAAAANAQQAEAAAAAAAAAANAQQAEAAAAAAAAAANAQQAEAAAAAAAAAANAQQAEAAAAAAAAAANAQQAEAAAAAAAAAANAQQAEAAAAAAAAAANAQQAEAAAAAAAAAANAQQAEAAAAAAAAAANAQQAEAAAAAAAAAANAQQAEAAAAAAAAAANAQQAEAAAAAAAAAANAQQAEAAAAAAAAAANAQQAEAAAAAAAAAANAQQAEAAAAAAAAAANAQQAEAAAAAAAAAANAQQAEAAAAAAAAAANAQQAEAAAAAAAAAANAQQAGAIrOdXK/XaDvJaqx/wDP1eKeVtH24wcuUT37bzfQvDMy96x8AAAAAAAAS//fy8vI/Ga/kdFhIoP+rwXk9kuVR+cNsJ9fNJPzv217m061clH8OjWV1OsgiOsBtP5fpNv3UbHeVeBdG1v2mkn1U+GyOS/pzsmktO5/x6iSH5MMmZ1mPllJ4SIV5f/X2UZdr+ZnPWVHyfZV5X6b0Z8upvFy1eqKek9f6o7WpDD0dWl2rqiA/q+ffE8mUx03286koly/PZrK7bkQtff16CY21vYQqtbk+u2v9A/DM4nuAwV83AQAAAMAj5xEo4w/v0v8JPspn09ux48/yUe+TrSNYyOF6lesQXiXW02rLk8omsrle5XrdSWHqxys5Xa+Gzm9J9nHq6tVl1/KLvl94/rXTf5Htt73c4k98KX/Tf/Y1DpLcZP/NHIBwEqXB3hk8kU1bb6DXzj8AAPAQopFu5nsAAAAAAHhuuQDKeT2S0ci+Fb+RFshHQ7Rg/Pljpbfz5baXuX7MedrJLZNN8074itzSr6T1vJf9Tax5kneT/Vw/3jzahxR3nmdGQJxlndnHWs7Rx4LFod1OcOfy0899JKN1fPYiweLVb/ovW/me/qN8LTq18Uq+xHGN83frG+CN689sJ1dlFItxP2peioRBoKnhc0qeGfejjz5pmn9owVGWSvnJbS/fbJUNoePSWv8BAAAAAAAAF7kASlO381luIhJ8/Ky9yT+Wzx8DETnLOerXCt6/ZD5R6LKVqRpImHwxd6L3QpxWkfPPrfz4FZ50Pk+qijrIkw7BQBav+kiJsaxe1c5vfaqloyyV/LMGIdriWn7HZSb9+WCUW/qPyzRAMNnYR/mko0/OsrZGQRoar+SUjDoJAxjGQ1y2Mh35nr7HLf/QAjUgoAe7AAAAAAAAANyNcwDl5X30zvzfn/LrJiLBe8mER+Iprc4/5e1v9v356i6yTYcKGDrReyKZvusmf3+LXP78C//uOo3XcSlpDEEbKTH7qqzjoXd+x9TpqrrIP8fy+/03GXmRC745p/8ob2l0R76YogOzXbLGy23/ZjlGc5mpwea2NLTEOf8AAAAAAAAA4DE5B1BSv6MRFxP5pHTwx1NanX+au2YrK+pE74lk+q7bL/lxEZHjz2h0g3un8/FNWa9DyeDZp3TkQmEWX36EAS5xGRHjoKXy85H+y/a7Mk3VV20UylhW8dxdrUynNJM0CfapwdriI/8eyWx3letV26xr0oiEi77Hn02n2MvvxzL9noSL9uaOqWyFs955Zj4Xy7nHa/bE5xjNoa9/J5MXJ30EXdX8s48O86lW+jPGsjrp30u3qlPf5dNdVv9UtnOocv7+qGmomu7mqtYfWx6o3zefb7ZOKPvxUv+zmtS/zHeU/ef2VXLsbupP1fKzt/+u0q/vv/A6rdSVq6WeiWGfRce3yeed5ZjaOenXmckmv4/iPKyXfwAAAAAwJB4DKCKXH7/klungT6fvynTOvvtQ8BBW7vb3t/6nHkin77r9+hFNu3OUn/G0Za6dzkoHdpp/Y/nwLvrb+adl9EDsIvGAmNwooTurW37qGjrZQJyv9KvrTmijUNQRGt9bmE5p9kmSEEZhBKMNvvJv+OKOq8p91TYvYadUfj+BLA4lnWxdijrTzAsIh+de1Hn27tNOmYZOwu+8rmS10/IiWMihKBOs+TeRTVknpQuX9M92cr0ekuuESbA4FHYkuta/sNPUdg4l5/9IrPWn3fbnXP9d6p/BbGfYV7CQgyUQ0Zv6Yy2/eu3/HulXX7wQ7cUWXXYdwLN819+U8FD+ZdeQNtcwa5J/AAAAADAk3gIo//5c0k7+yafwIVWZvqu4c7aCl/fJA+i/P967sd0p03f9+pGe3zGNoLhN42XswH6ReAa1KkGJ38kUau/kg9O5NNCw/DIdIbe9vGUqksf0H9+UdT7iUSjZ0SfZY/sxTiIY4bRv9+Ux/wZsvDpZOq7qCmSxiadjM5t86WEn0nglp0PxeYsUdP6KSDCZ5L8fLGRh6syLfx9yKuRfwTpFjXlIfzWmNazc6994dbJ2mmYECzk8dCdmhfrTUvtzqv++658y5WRefprK/tSfCuVXpf3fLf3pCzIihnJNzOSr2r71+2EP5e96DXHRPP8AAAAAYDhyARTjsP1k0x9elTfYRUTkkpnGy9v0XWpHtj6axbN66U/lpu+KJVNXuU/jlTP+IJns762q5Re+ZarmefJgfl7nF9T2mn51nZaokyUZfXKT/bdqo0/q1p9kDaEueM2/hvRpREq3fB46Ga/kVet4uu3n6SLuo5GMktFJ1aX7mCeBORExBlIv26nz8Vyka/BIWNfnyrmMRun6SyIiky/WURRy28tc/3ySF2vlbe3yAJxaBtn95TtAXflJf/574aamW/Kjt1zrX+77+nnox9fW0HpQddqfNw3rv5/6F3svX6Pf2vM62sc8nf5TRBsN29P607z93zf9yQsyIsl9b44yylTkJnvtTQzn8s+lwXANGY1knmkIInLZylT9jFZxk/xTt9w9mH5s/fyL8w8AAAAAhiIXQHGVTuO1Cqe0Ut7cTxZVr2O8kpMyNYB9oesupdN3yb8/2QfMVtaOKO+ANGmU/65cyy/qlBota33LqDT9x2XSWREsXuUUB33usjbJP6kxMKcTpfk3QNmpVcJOo6ljYd/2c2UfcVC5p8YrSWKbInJeT3N1/bhUO8FsgeA0yJiOVArbb7hu0G9R/1xEL4Ps8X1eRz2l/7iU0Sj/vdBR3jIdl9lrt2v9y3e+6udxlKXWgVw01dAj6Kb9Naz/PuqfKpjIJAjzIPnJvGwleTdAskG8PtYfvQ3Uav/3Tr8yclXEPMIpXWdM8i/YeCj/bBry+Re7bKfGv7twzj8AAAAAGIhcAMX41lmyVej8TqbxWsgiUNcDUehv4caChRz0N86TqQ3CN9s89KMXapT+ZPou02gbpQPHlu7amnW2p9NFtcS5/M6y1t9c9DjtQ5X0H9/ih/1AgkDC864xd1ej+iOS61jtoyr5V5v+FmzpVpSHdSmBTxEpHh1V0Xmd66TqdeBJmVpPrCOoNsob1CLBe8NVTO8YTP5suP4XOa8N1whtqhxv11GP6RcRfUHyeLNPreNa/7QRoJYyyKyfJe5rkKXM6VWn8wnXftE+4+l6btRV+7PkfWn991r/Yvk1No5L0zW06/pj4KX93zP9WoBOH+GkB0j0ddScy38manymralGzXzkHwAAAAAMQy6AUk+6hkJKfaDMrgfSVNgprb/Z1h/pW8TmDrB4VI51iodK9OnSROTyR+7QNeSsWfkpby4GC3nNzVvRUvovW/mmvFJ623+red71ZN5Wvrc28m/I9Lnpn0ArQbEB8ZP+OJCQ7eisrXb9035/9dGPCWX9LKnSAY178VP/sm77t4r16DHrz73Tn11MPjtCRF88Xr8/dC5/bRrO0oCdV37yDwAAAACGwDGAYpYEDGxvpNnE0zVpW/6NxD5R3iK2dYApb+A1n75AeVi9/RV9ye/yt1LV9TaajWAp5bv8lKk3Cqft8Jx+9Y3lOgveuwmkQhJa4zP/hsMUAAbqGMvq1DRwQv2Db35eWhmuLtKfHSGT3qtkR5hVD+wAAAAAAPrGUwDlJn/VHv14Wh59wclHpEzfJZONYfqFq1yVNUBk8qnZItjKQqTpW4bKg3vpfpWpHmyBnh5KptQyLj46/PSno5NcgmtN9SD/Ol1EXluX4OmnFtEXALZsjSOiTelTxeQDyH40SP/sa3ptF5HsNIThllu8OeFa/6p+v638O8pSzxtt0WvTYtZPcV/QSIP656Tr+lNVW8f3l/506k9lGi/13rBSYKdB+WujSMteNPHLX/4BAAAAQN95CqDU1f/1HqrSFwEu12Qar7Gskom0sw/i6RRQJftVAjD5dVp6TBmFYlqgdfDpV+cHn3wR00xlbRp8/jmpMLXIeCUndVGHB5NdHyK/QHEv6EEK61Qx9bmmPzsFz0328zpr9LjWP/372voLsUxHrt/8ezS5kXizXcEaNu5c65+bgdSf1tq/x/Rn1vkIZPF1lr03PH83TgXqXv5aEMP4oklbPOYfAAAAAPScWwBFm3+51O+/6Vt6D0GZosEyfVW6RYuiNxhpMF69Jh0I+poc6vzbpgBDaCa7uBPurouM+nGMh0kYOgeGn/6LbOMIkQSyeLWloR2d51+ni8grdUtERCay2SkVbLyS02FRM0A6MMc3UQdIBIuDXNU8UIxXp3YXADeZ7eSaCSDcZO+zAjqmv7gDNFwbpagD3rX+Zb8fyOJwygZhc/vwnH+PRh2Jl6t7LXCsf656X39yZeD3+P7Sr/6Oi8hkk2n31pcOnMtfW8RewoXoT4Y3MWa7q3XfIvn788mmfLSnv/wDAAAAgH5zC6A8O+XNuvLFO+tMlxSJpjdKHsRve/mWe43xKG/xE3iwkENuiqOZ7JLFjW+y/zbA6VOUToZ8J/8DpP+4TKe9CRZyuGqdELHxSk62f2vsAfLPxfGnsgBw2PGVTBdW0nntR7wAubJpnbaTTfbfi/rA6tM6/kTLA2UrCgR4ox9byws9gByuQeKSf47p1zodg8VB+U6FtVFc65/WARt2Yirnre0jn3/PLrt+hchENpZ61A7H+ueqb/VHT3tp+3fkM/16W44VvnTgXv6X7TctDfp1KNxKq7M2HVimLcSbHsDxmX8AAAAA0GO5AIre2aRvfjrvWlwwO1jIwXDe6aZ3EGfVSX86RUOV+a3Vt/VM0yVpD57X7MPnbT+3zh1/2U6Vefb1h16l83s+HejDq9LJYByF0p/016k/quNSXTvAUBe0+uBTn/Lv/o6ynCvz1xuc1+nosYd0XMpIXbiir85rmbZRAV3Sf9nKN733Unc+F9Qf1/p3ke10nutANWor/wYus36FQXH+e+BS/5wNqP60cnyf6VdeRlCUvlzjXP410lDoKMva51Hj2KX5BwAAAAD9lQug1PLyvpUO3aF4eZ8MP5EK8ZPM28pVp/E6r8Opi8oePC/baWaaMFW4kO/AO7+VtztNU0s8QvqPy5GMRgWdEbe9zFtKxyPkX2OXrUxN+R5Ny+dtzeY+Oy5lpC0ArjuvO1oAPJ4esc2CcEj/ZTs1d4Am5/1T/5cs5/p3ke10JCNbIOYe+TdkzvnvgUP9c9fz+tP68f2l//Ljl7aPs3yv8sPpXP5RGiy/4RL/jpel4bgs3IeZv/wDAAAAgL76v5eXl//pfwQAoH3qFHHhW8p0tAHP4sHav7bmx20/L335BQAAAADQf24jUAAAAICnNpbVqzrNZsXRJwAAAACA3iOAAgAAADQyltXpIOo67+f1UgY8lgYAAAAAoGAKLwAYHG3qm9rOsh71oYPvwabwAZ6Cr+vPgNv/bCfXjSUHhpQOAAAAAEApRqA8rZnsrle5Nt7yC7kDAAA8LYInAAAAAPBwCKAAAAAAjd1kPx8RPAEAAACAB8QUXgAAAAAAAAAAABpGoAAAAAAAAAAAAGgIoAAAAAAAAAAAAGgIoAAAAAAAAAAAAGgIoAAAAAAAAAAAAGgIoAAAAAAAAAAAAGgIoAAAAAAAAAAAAGgIoAAAAAAAAAAAAGgIoODxzXZyvV6j7SSrsf4Bz9TjnVbS9uEGL1M++W03078wMPeuf7ir2S4q28FXVKALM9kZrvu0KSVfnjofAAAAAKB7YQBlvJKT/uBq2XLPcZU6i8eyOqX7OGk9iEkHlG2z7jeV7KPCZ3Nc0p+TTWvZ+YxXp9wxsttOSg+pMO+v3j7gYia7zST932Ahr/SYAwCAima7jSR3EpNNhXtPAAAAAEBbnEegjD+8S/8n+CifTX3F48/yMdD/WEOwkMN1IG/h6Wm15UllE9lUCYJEQaDDwpTR4T70wBUAAEB3jrIcjWSUbHPZ3/TPAAAAAADQnVwA5bxWH2Tz2/Kof0MVyEdDtGD8+aOYuvVzbnuZ68ec7yV5lp5sWg+iuKVfSet5H3UCmPMk7yb7uX48tSNhIhvb9D/jlZwOiyiPz7LO7GMt5+hjweJAEKV1R1mu4xwP6/S37UX9AHTHZbbeq/kHAMCTOS7Tezc5r0vvPQEAAAAA7ckFUJq6nc9yE5Hg42dtyqqxfP4YiMhZztHTYPD+JfOJQpetTNVAwuSLOYjQC3FaRc4/t/LjV3jS+Typ6iLbqdqhHMjiVZ8SbCyrVzV4spTsc/ZRlkr+BYvXHuffg1ADAtOtED4BAADVKSNziJ4AAAAAQKecAygv76OxJX9/yq+biATvJRMeiae0Ov+Ut79N52W4yPZ7GkSoNqKjA8n0XTf5+1vk8udf+HfXabyOS0ljKAv5qg7CmX2VeNau81oPnsQusv0Wj+Tpcf4BAIYtWVPMMmISAAAAAABgQJwDKKnf0YiLiXxSOvjjKa3OP81d+5X9/ptM5VVrBMsdJdN33X7Jj4uIHH9GUzC4By2Ob+lUZhMlg2ef4mVGz1KYxZcfYYDLaURM/812V7letU1d1D1nJrvks2mHX34/9s7A8eqUP6aytTzrXIb5XCznnnR0Ruc42xm/k8mLkz4Cqmr+lazh40mt9GeMZXXSv5duVae+y6e7rP6pbOdQ5fz9UdNQNd0u4uMlx1LqZbJVbETG/C+oe+Hno/zNHDf9TqZOVToPtU1U+J4p4GDIg0plkWnD+bQ8Itf6k9SZKp/Rrn/e60+T8vNYf+q2n95pkn8JQ7s1bbnfwJD5t+daev22f0/dqqVh8OUHAAAAAD3lMYAicvnxS26ZDv50+q5M5/67D8YH0Kpuf3/rf+qBdPqu268f0bRNR/kZT1vmGrRQAiBp/o3lw7vob+efltEnsYvEA2Jyo4QeQNwJUbmv2uYl7HjK7yeQxeG+wZBaog6zQzwcKSM8d1vHj4jIu087OWUSHU4Xt9ppeREs5FCUCdb8m8imzWCSS/pnO7leD8lILpNgcSjsCHOtf2HHl+0cSs7/gcx2V7km6zkpJpvi9Ecdp+b8D+uevfM6kPcvM9lljjuRzW4m49UpW6cmm8I6HNaDjeROY7Kp2JEZBdEMeRAsDgV5EHX+GjMgTH+VDvSha1x/nPioP77Kr2H9cWo/feCWf9Z2W0l4bPNvj6TX7zbzb/DlBwAAAAD95i2A8u/PJe3kn3wKO4qU6buKO/creHmfdAj8+9PDVSWU6bt+/UjP75hGUNym8TIGQF4knkGtSlDpdzKF2jv54HQu/ZLrpGoskMUm3/GkmnyxdEB1abySk6HDLKcg+BFMJvnvBwtZmDpk4vadUyH/NlU6kWvykP5qTGsQude/8epk6fjSBAs52DpAH0CwOET5cJP9PJr7fzSyT18Ym+2UjtOzrON1A0YjGWXWz9pYO1Enm41M4uPGB3z3RV4Xgch5nTkPdQRgxmQT1YPs+c/TE5BNYf0LZHGIg2jZdBTnwVhWp7jzN3tsNf3B4mDpvH8MjeuPB271x1f5Naw/HtpPtxzzb7ZLr9+3vczV9CcZp/ybZV2z236uHDfelIXgLcGzy3Zq+F64pdeOAoMvPwAAAADov1wAZbLRh/8XTQWgjIAQEZFLZhovb9N3yVhWX9IHROfdFaiX/lRu+q5YMvWY+zReOeMPksn+LhimCine7HnYyHgVdlIpch0ZaidIRek+lA4IEWMgLNcB0uB4LmZf1eCB3oGkdJ6JiEy+WEdRxB1E+umHeaF0BFUIwKllkN3fRL5YT6AZP+nPfy/c1HRLfvSWa/3LfV8/D/34hg7Qh3KW9WgqW+UaelymeWDsfI5/G257mY/0daAusp2mdSBYfLVef277b+Fx42t2EEggZ1lHCzinAegi+fO/bKdpHbQGHxXntYy0dKh58E5rfOPVa9RpfpP9PHvsMP3pNayXAWCv8vlfXH/8aVp/vJdfrfrjr/10xTX/1GlQ13pw5LhMr9+G3/5QuNj7NHvg9N/m6fSrett1N/zyAwAAAIAhyAVQXKXTeK3CKa1ue3mLnuiSRdXrGK/kpExtY18ovUvp9F3y70/2AbyVtUfKO7BNGuV/zyWBq8h5bevIqO62nyv7iIOCPTVeSRJbFJHzWu9Aynae2QN5N9l/CzuPMh19t718C3sFxdL/l6OXQfb4PtuBp/QflzLSOl1TR3nLRNCybc+1/uWDP/p5ZDvgpOVO4G6dZZ3rAJTMVIg5s6/pb8N385vhIuoaUtk1ulJn+W4ot9v+zXA+NrbzV0YiWo8fuu3nMoo63LPS9pddA0z57Tl/t9Thi2y/l3UCPwJb/hfUH2+a1h+/5Ve7/nhrP11xzb8K06AqL8E0Wn5PvQdstIMCgy8/AAAAABiGXADlvNbfwFY3U+eEJpnGayGLQF0PRKG/xR0LFnLQRywkU/OEb2Yb+wY8apT+ZPou02gbpQPelu7a/kmTWczG2eFCfly2Ms3lU9FmycNGlM4TEfEyOum8znWA9zrwpExtJ2IbQZWd293YiaOPnEr+bGi/Rc5rQxvVOjC9tQOP6RdJ59HXNvv0XK71TxvBZymDzPpH4r6GVMqcXnU6sXDtF+0zbU0jZuvAVGlpT69pJXl/+SNxKzYGoIzHzk7HWMq4j0jSCVvMPj1l+Cb5aDTKdpAX/vYoXDuBjaL1NvT6kfxmR2s/6P/eo/rjjfHYFeqP5/KrW3+8tZ+uOOefMjWqbXRY8htzkwozpd7V4MsPAAAAAAYiF0CpJ12DI6W+sV+hA6GCMKihv5ndH+lb6OaH2HhUjtvbf/p0admHYtg6sR5bK0GxAfGT/jiQ0HQR4Ujt+qddP/XRawmlk088B6AG7iVdBEqK+zarj6BqhXKt9jqNjxJANAcP9aAGeqXj8htM+7HxkH/q6LCNHtxT1xexBbhj0ULu+S0dQe3b4MsPAAAAAAbCMYBilgQMyh44dfoCntGWf6O9T9QpJCwdqMob5M3f/lM6Ww0Py/a36lPJw3bDESz9YwrgAXWoCxDXRf1DRX1Yr8o7ZVSDuiVTzunr+USbvs4E0KXjW7rOmT4KWl2c3VpvowC8OnQPAAAAAPBQPAVQtKkN4mmdrA+cD0SZQkImG8Pbh9obiLZpIsrMPiWdvOm0SsrUSKX7nUm6Vqol0NNEp4vIa29VtjU9y2BYOiz17e4RSX2qqnwA0I8G6VfmkA+dZa19fp5ZA0XlWv+qfr+t/AsXP9bzR13z/raf5/69l9f10lE5abDr1vE8PPZplhpQpgYrnn4y3e7e/GHXl/IbUPvJ8JB/ySL0t7OcDZf68Bpon3p0tlMC8Od17nijUbqIfWuGWn4AAAAAMBCeAih1NVsEvY/0RaTLNZnGayyrZKXs7LRo6YLfJftVAjCFc4UPSoWpjcYrOT3wm6HZ9VkMC6T3gR6ksE5VVZ9r+rNTgN1kP7d3lOW51j/9+/oCxxE1SCt+82/oqi7Orl7/vAYwKiqb5rGxtqYGe0bWAKby8oFvHZffUNqPlXP+zeRr9ON0/r6UpWFElb4mWpb6Ysr67i8nDL78AAAAAGAg3AIodaclqbiQ7nAo03dZph9Lt7Wkg0WKnnTzkjckReS2/5ZZC+ay/Z7u94ttcd6Z7JJ5vPfy5vMZv9NF5NUOBAnnMN8peTteyalg7vOHoE4/Ei/6reaBYrw6tbeAs406h7xIGKTwWQEd018cgAmnZrEvIu9e/7LfD2RxOMlKPYXcPjzn39Adf1a4/qkBaM8BjErSTlqvo/9EMqMQg8VXj6P7npApAOo0xV8VHZffINpPEcf8q3sPq6vyff0FAp8GX34AAAAAMAxuAZRnp7wZnk6rZVNnuq1IND1W0oF728u33NuQR3mLe5CDhRxyU2TNZJcsjn2T/bceTr/jQulAENGmUSvpvPYjXoBc2bQRB/ritpb+/YYusv2eyQHrVHJFgQBv9GNreaEHAMMOSpf8c0y/FtQNFgflOxU6Tl3rnxYACoMoynlr+8jn37PTrn+5AOFYVqd0CsXz2m8AN8N0XR+v5JTUo7OsW3hD/fgWrzkykU2ufcSidmb+x6eWWURcD4C2uAB4rNvy61H7acgp/5QRLJONfu9UgfJ9mXzJBr/vsjbK8MsPAAAAAIYgF0DROyv1TX/+bCaQCmueN6MvAprbih+S66Q/nZYlO62WTfF0C1rH6TXbeXrbz61rD1y2U2WdhrATId2PEjyZTx+w8/Uoy2TRYrPzOh3985COSxmpC1f01XldMh1KQy7pv2zlW9kE9edzQf1xrX8X2U4rzpHfVv4N3GU7TddtyV3/1c7D/PoHfunXXvUaXnd6uBouW5kq9d/8G9Z+IGCw1CCmKQB6Xhesg+RBx+XXdfsZr072tOrB8FyAwDX/jrJMvmtov+pmvPlVv6/fw6WB07P9B8BZ1+UHAAAAAM8gF0Cp5eV9+RvWD+wlWZXzl1SIn2Tedq86jVe8MGpZx+llO81ME6YKF0F9xOBJ5LKVqWmh1mhatafoNDguZaQtAK47rztaADye3q7NgnBI/2U7NQdgkvP+qf9LlnP9u8h2OpKRLRBzj/wbuOMyO01iRrSwc1vZd1wWlF1yDW/5+hvVf3tH/0328zvVoWRax5bT7E3Y/vKXgDvmWcfl12X78eIe+TfZyPWqTbEo0bGN7T865mgpb8lade0YfPkBAAAAQM/938vLy//0PwJANeoUcVFnDT01AIC+U9eYKvjtGq9O6RSQBZ/zbba7ymYSBdENwX8AAAAAwH24jUABAAAABmb2VZli780eFLlsv6UjDN99yE8j1oqxfChdoR4AAAAAcA8EUAAAAACT8Wf5GM9X++/PfUaCKMe8/fpxn2MCAAAAAIwIoACdmMlOX6S21raTaqvoAAAA3e9kbZJAFgfLb6o6zZeInH/aR6rUNl7JyfRbnjnmWb4PYzEhAAAAAHhYrIECdEJbO6S2s6xHS/HYldMQa6AAwHN5lN+vsaxOB4mXNylzXntejF0LzuTdZD+fCvETAAAAAOgWI1AAAADwZC6ynY5kNFrLWf8nxXk9ktHIc/BEROSylanl2Lf9XEYjgicAAAAA0AeMQAEAAAAAAAAAANAwAgUAAAAAAAAAAEBDAAUAAAAAAAAAAEBDAAUAAAAAAAAAAEBDAAUAAAAAAAAAAEBDAAUAAAAAAAAAAEBDAAUAAAAAAAAAAEBDAAUAAAAAAAAAAEBDAAUAAAAAAAAAAEBDAAUAAAAAAAAAAEBDAAUAAAAAAAAAAEBDAAUAAAAAAAAAAEBDAAUAAAAAAAAAAEBDAAUAAAAAAAAAAEBDAAUAAAAAAAAAAEBDAAUAAAAAAAAAAEBDAAUAAAAAAAAAAEBDAAUAAAAAAAAAAEBDAAUAAAAAAAAAAEBDAAUAAAAAAAAAAEBDAAUAAAAAAAAAAEBDAAUAAAAAAAAAAEBDAAUAAAAAAAAAAEBDAAUAAAAAAAAAAEBDAAUAAAAAAAAAAEBDAAUAAAAAAAAAAEBDAAUAAAAAAAAAAEBDAAUAAAAAAAAAAEBDAAUAAAAAAAAAAEBDAAUAAAAAAAAAAEBDAAUAAAAAAAAAAEBDAAUAAAAAAAAAAEBDAAUAAAAAAAAAAEBDAAUAAAAAAAAAAEBDAAUAAAAAAAAAAEBDAAUAAAAAAAAAAEBDAAUAAAAAAAAAAEBDAAUAAAAAAAAAAEBDAAUAAAAAAAAAAEBDAAUAAAAAAAAAAEBDAAUAAAAAAAAAAEBDAAUAAAAAAAAAAEDzfy8vL//T/wgAAPCsZrurbCb6X0Xktpf5dCsX/e99MdvJNT7xKueqft7gvB7J8qj/tUDd46NdmfK9yX4+lW2bBUL51+O7/fXNvesfAAAA0JIogDKT3XUj9lv4VPnN/FhWp4Msguh/yx6gKj1sZfd5289lqtyBj1cnOSQHLKZ/N5Z0lljPwc7H8VM186/K8Svsw8l4JafDQgrOIJGrPx7K39rRFbPuN+VS/k7pz6lX/qVlL2dZj5ZSeEiFeX/19lGXa/mZz1lR8n2VeV+m9GfLqbxctXqinpPX+qN3WKj0dGh1raqC/Kyef0BPlbXHgvrfvfy9nP57mWO9XoQqXXMSDY6Pdt21A5vyr81r++uhu9Y/AM8sfgYZ/HUTANBb/qfwGn+Wj2rPQ/BRPo+V/9eMP7xL/8f2WX2fj0xPqy1P6ggWcrhe5bRy3ZF/dyn/KP3X3Uz/l/7R02rLk8omsrle5XrdSWHqxys5Xa+Gzm9J9tFZ/XEtvyr1v3b6L7L9tpdb/IkvKynYu4iIzL7GnbI32X9roQM2SoO9M2Yim+tJirKhsdr5B/TRTHZFwRMAAAD0x2wnV+szCAAA/uQCKLf9XEajkXUri+iPP38MOx/Oe9nfREQC+Vi5B9j82WSfFpftNHue63Pyb+d19vzbeBPO5/Hd8u8sa73MlHMJFq/tdJ4q9PTqW3H9Mae1rPwTt73M9WPO005umWyad8JX5JZ+l/K/yX6uH28e7UOKO88zb1zrdWgtcQ0KFod2O8Gdy08/94r1v2n6L1v5nv6jfC06tfFKvsRxjfN36xuYjevPbCdXpePXuB81L0XCINDU8LmC69doNJKR/vZ90/wDema8+pIdiWu6Jun1v1eOslTar9z28s12sYkdl9b2X1+D4+OBUP61eW1/AAAAANqSC6C4Gcvn6PX588+t/PgVdtcFHz+Xvp19O5/lZvxsvM+znKPniuD9S+YTj6N5/lkdl8oDWdXO+PtrrfwvW5mqgYTJF3Mnei/4Lv+og1wp/8WrPlJiLKtXtfNbn2rpKEsl/6xBiLa4ll9p/XdL/3GZBggmG/son3T0yVnW1ihIQ+OVnJJRJ2EAw3iIy1amI9/TZ7jlH9AnL+/VUP1Z1r0OllioHbJdnH/Xx0e3KH8AAAAAD8hvACWZfugmf3+LXP78C/9eMA1R0mHx96f8uolI8F4y3ePxPs8/5e1v9v3ph9Mg/yr5/Td587xW8OEO7lP+F9mmQwUMneg90Vb5H5eSxhC0kRKzr8o6Hnrnd0ydrqqL/HMsv6L675z+o7yl0R35YooOzHbJGi+3/ZvlGM1lpgab29LQEuf8AwAAAAAAAPrLawAlmX7o9kt+XETk+DN6O7tKp9nv6I37iXxSOnjjfZ5/mrvmHolb/g1dy+Vf1IneE22W//FNWa9DyeDZp3TkQmEWX36EAS5xGRHjoKXy85H+y/a7Mk3VV20UylhW8dxdrUxnMpM0CfapwdriI/+GbSa761Wu16tclSnyZrv4b/l/y1K/b14nZrw6mfcTr3lzvcpuls4BrX8ucy4nfQRaVvZY+X2ZZL6j7D+3r5Jji4xlddKPXX78frCde7iZytVX+eXyWdsKZz30wM/xG+RfxF/980Mtr6LzbkP+ulO0JpZ4uH4Z8lnbqpW/H+ZzsZy7l/ZXNf/so1N9qpX+jObtT5VPd1n9U9nOocr5+3Pf9lu1/tjygPuHVBf1p2r52dt/V+nX9194nVbqytVSz8Swz6Lj2+TzznJM7Zz068xkk99HcR7Wyz8AwPPyGEBJpx+6/foRDds/ys942qUKnWaXH7/klungTadvynTOvftQuq/hcc8/G3UNEedARIvuVf63v7/1P/VAe+Uvku3ATvNvLB/eRX87/7SMHohdJB4QkxsldGd1y89e/32lX533XRuFoo7Q+N7CdCazT8maDfdv277y74G8hA91+T6jQBaHkodUB+8+7ZRp3CQ83utKVjvtXIKFHEwnET2MmhfgDM+9+OEza7Yz7CtYyMHSkRA+NB+StpJV//hV6Q/r2XKbyCb3MG0ow9mu4NxDweJQ+CDuXH5D5iH/dHXr39DFHVf5605NHV2/nDlev7y1P2v+hdeSoq86cUm/h/bnWv+6uv73jrX+tNv+nOu/S/0zqHv97k39sZZfvfZ/j/SrL36J9mKdLrsO6Vm+629qeSj/smtIm2soNsk/AMDz8hdAUaYf+vUj/XE9pj3AhdMQ/ftzSTt5J5/CmwRl+qbizrkH4Jh/Npkbsdte3nqaka2X/8v75Abw3x/v3djuWir/lKkD+0XiGdSqBCV+J1OovZMPTufSQMPyK67/HtN/fFPW+YhHoWRHn7TR9sZJBCOc9u2+PObfQwhksYmnUzObfGnnISyYTPLHDRayMD2MxtfX2Hglp0PxeYtED/BVegCUKevy8tPcjVengs8rgoUcBv0Qa1qDKvoXl/J7Gvb8y6hZ/4ZuvDpZOq7q6u765cTD9ctP+6uQfwXrpDXmIf3VmNufa/17nut/mQr1p6X251T/fde/mtfv/tSfCuVXpf3fLf3pC3oihnJNzOSr2r7153EP5e96DXHRPP8AAM/KWwAlN/1QLJl6xzQNkfIGs4iIXDLTOHmbvmkAmuWfLv/GbHJjcF7fZUFP47DZZNNvHu9V/kpHtj6axbN66U/5Kf+axh8kk/29VbX8atZ/r+lX12mJHnKS0Sc32X+r1vbq1p/sotd35jX/GtKH8Zdu+Txsw20/jxZSnieBNRHxEAgtcNvLfDRK1ztK/jyX0WitvG2YDWCla+hIWFfn0QLQ0ZbZ3+SL9S3k0Hv5GrXV8zraxzydPlBEG003Xslr5sFZP7563uFDbGYNp97Qz9t2/gWjrxqW32U7zR5T30HL/BzfQ/6J1K9/Q5drP+q1p3l51Ll++Sn/5rxdvxq2PxO1DLL7y3eAuvKT/vz3wq2k/bnWv9z39fPQj9/X679fddqfNw3rv5/6F6t5/e5p/Wne/u+b/uQFPZHkuTtHGeUucpO99iaYc/nn0mC4hoxGMs80BBG5bGWqfkaruEn+qVvuGVA/tn7+xfkHAHhOuQBKOFRb73Qq63xKpx+Sf3+yP1A1575Pp3FahftU3txOFtV+OP7yLye6KR4trb3OveK9/McrOSlDc+0LXXepxfI3Ku8AMGmU/65cy89j/S9N/3GZPCwEi1c5xUGfu6xN8k9qDMzpRGn+PYjbfi7TpMDjoHDb0iBdOtInrP/huju/Rf1zYrySJDYpIuf1NFdXj0v1IbIkkBtMZBKEeZA0uctWktiiZDvh8g/f+vGPstQ6EIqmmqjruCx42JezrPUH8NEoTVfsuJTRSD/v2FHeMg/+tmtvw/J7BF7yL1Kz/g1ddmqVsNMovfY00831qyFv1y9/7U8vg+zxfd7HeUq/Q/tzrX9dX//7qJv217D++6h/qprX7z7WH70N1Gr/906/MnJexDzCKV3nUPIv+Hko/2wa8vkXu2ynxr+7cM4/AMBTygVQGkmmHzKNFlBuAKs8uCbTOC1kEajrQSiq7GdIvOWf2uET3bTcedip8a2PZKvQ+e1S/sFCDnrQLxlaHL5Zkuv88qxR+r2Vf1XNOtvT6aJa4lx+7db/Kuk/vsU324EEgYTnXWPurkb1RyTXsdFHVfKvNv0ttNKtKA89OK9zD3l3CRzpD7bJnw3XT5UyNZ6IbQTURnkDUSR4X3YVys+RnQ1UxGWgjUC0pCGzfpOI8xpY7cku6BtvlaamsKS9tPweikP+ZVStf67M56tOB2J8IcnT71HmxQsRKR6dWVFX16+mfF2/fLW/89pwj6JNlePtPs5j+kWs9dne/lzrX9fXf3N679d+Dbpqf5a8L63/XutfrOr1u+v6Y+Cl/d8z/VqATh/hpAdI9HUcnct/Jmp8pq2pjs185B8A4BnlAiimoZP5H+6s9C0k8w10PKogP0Q0nUM/pf6gZ9eDeFTN86+I8uZEsJDX3LjZPrhP+Yed0vqbJf3RTvnr9OnSROTyR+7waOasWflVqP9tpP+ylW/KK123/bea511P5m3Be2sj/3BXbQS1bvs3431Cnnb910ffJZT1m6RKB8S9xR1x2Y4CVOU3/6rXvwejz03/BNq4fg2Jn/R7an+169+jXP+fl5/6l1X9+v2Y9efe6c8uJp8dIaIvHq8/nzqXvzYNcGnAzis/+QcAeD65AEp9yltIthtoJYJfZfhj0mFseyPgofjPv4Qy9Ldw2HDPNC7/eLombcu/EdQnLZZ/hnKzePsr+pLf5W+FqettNBvBUsp3+dWo/z7Tr74xWGfBezeBVEhCa3zmH4bMT9B7OMayOjl2PD413/n3TPXP9AIKUIdL+6P+wbdnun6bdJH+7AiZ9FkpO8KsemAHAIDH5h5AUaYfksnGMHzzKldlDQOZfDKso3KTv2qPbjwti77g1yPykn92yZRCvV78jPIXaaf8E8pCgOlbPsqNc+l+laHWtkBPDxXX/+GnPx2d5BJca6oH+dfTReSHSV9A07I1jmjqtHnVrVMj6FMt5APAnZl9Ta/NImJaNyW3+ClSg86/oyz1tqGto2Mc0e3tvqZq+3kW975+VXWv61eD9Du1P9f6V/X7beVf1+330TSof066rj9VtXV8f+lPpx6WdBov9dm0UmCnQflro9jLXnTzy1/+AQCei3MARV9EsJzLNESx/s/3X1Xr+ae8hW9aIG6YKP96xrJKJrLN3ginU0CV7FcJwOTXaemxkvo/+PSr8/NOvohpprI2DT7/eiY3kme2K5iD3l12fvX8Ap/t0qdG0ObfjmUe5IumWri/7BQWN9nPzdOcwoz8c6G3H8PUIuOVnNRFHR5Mt9evivQghcfrl2v63dqfa/3Tvz+863/fcP+g/H+s6/rTWvv3mP7MOh+BLL7Oss+m5+/GqYjdy18LYhhfdGuLx/wDADwVxwCKMsTTMv1OukWLOqtvSmvzX5b6/Td9S+IhOOZfRcf4NfG73pxUQPnfpfzHq9fkBl5fk0Od/9YUYAjNZBc/BN91kT8/iur/8NN/kW0cIZJAFq+2NLSj8/zr2yLyrtSRPLOdXK2dT54c30R9wThYHOS6M19fxquT9wV0k7YpEtbfwykbBByv5HRYKEHmm+y9ViA3xR0I4doCbXZgDR355ybbfiayUdturu08oI6vX6Vy13DP1y/H9Lu2P9f6N/Trf+9w/9Cv+pMrA7/H95d+9TlCRCabTLu3vvTkXP7aIvYSLkR/MrwJNttdrfsWyfcPTDblo8395R8A4Jm4BVCUyHz54l91pnt5EvfKP+Umx97Jibtru/yj6Y2SG+HbXr7lXiM6yltcOYKFHHJTHM1klywuepP9twFOX1BY/x8g/cdlOu1EsJDDVXsIiI1XcrL9W2MPkH+dys4/LTKRTTzdWNudHyL5B2cJH57zU58Vd6Q1pj2Ahw+xynG1Djg9ANw57aE9WByUPGu6tkAd8QLQyqbVm8km++/ZPoixrE4u33c8fuf5N3DHn8oCwFrbLem89sOx/J11fP3S6cfW8iJ//XJtf47pd21/rvVv6Nf/znH/0Kv6o6e9tP078pl+vS3HCl96ci//y/ablgb9OhRupdVZmw4s0xbiTQ/g+Mw/AMDTcAqgpEM8q8yPqUb7S6Z7KZVdMHm8OmV/JJVfWv3hw/RmQ0awkIP+o5vZ9A7C5se/X/4pNzmGt/B90tOrb34enltcMLtB+avqpN9v+Ws3ftfszd9tP7fO3XzZTpV5rvWbTqXzez4d6M1jcf3vU/rr1B/VcanO3W2oC1p98KlP+TdEmfmnDc7rdPRZK45LGakTv9/VRbbTee4B2ui8lmnfKtBlK9/KTv58brf8hoz8c3SU5bzj60fXOr1+1dDW9csl/c7tz7X+Dfz63wPcPwyk/rRyfJ/pV16GUpS+3Odc/jXSUOgoy9rnUePYpfkHAHgWTgGUl/dRd9ztl1To/8287TT5NBN5ed9Kh95QOOdfHcrbJVWGtt4F5R/+R4vlf16HUxeV3fhdttPMNGGqcCHNgXd+l9T/R0j/cTmS0ajgYeC2l3lL6XiE/OvMZStTU7lF0/p5W3O1yHEpI20BXd153dYCuhfZTkcysnXExdMb3iUj6rtsp+YOhOS8f+r/AgX556gP14+udXr9KnGP65dD+p3bn3P9G/b1v3PO+e+BQ/1z1/P60/rx/aX/8uOXto+zfK9y4+5c/lEaLM8QEj9HlKXhuCzch5m//AMAPIf/e3l5+Z/+RwAAAACAiTpFZfiWMh1twLN4sPavrflx289LX74DAODZOI1AAQAAAAAAwNCMZfWqTvNbcfQJAABPhgAKAAAAAADA0xjL6nQQdZ3383opAx5LAwBAa5jCCwAADIg2dUZtZ1mP6CAAuvEo7ffBpvABnoKv68+A2/9sJ9eNJQeGlA4AAO6MEShPaya761Wujbf8Qtx4JtQfAAAAABg8gicAABQigAIAAAAAAPBUbrKfjwieAABQgim8AAAAAAAAAAAANIxAAQAAAAAAAAAA0BBAAQAAAAAAAAAA0BBAAQAAAAAAAAAA0BBAAQAAAAAAAAAA0BBAAQAAAAAAAAAA0BBAAQAAAAAAAAAA0BBAAQAAAAAAAAAA0BBAAdBLs91VrlfDdlrJWP9wn8x29c5V/bxh2830L5Soe3w8taSd1a5oD87aLnfS65war+QUnetpVaX1z2SXS6NDnah9fAAAAAAA+i0KoBQ8QGtb+fP0WFYn5TtlHXiVOvuy+9QfyserU+48bZv+3VjSiWQ9Bzsfx0/VzL8qx6+wD6A3og64zUT/hyGYyU498WAhr6Vt3qeujw8MXfQbPMgL0FhWrwsJov8LFl/vHOzp+vgAAAAAAPjnfwTK+LN8jJ+eRUSCj/K5oP9u/OFd+j+2z+r7fGR6Wm15UkewkEOl4A3QtZnsDmkHHADc02x3kEV0Abrt5zIajbRtKUf9S4N2lGUmfXPZ3/TPAAAAAADwvHIBFHOHQbotS3oOxp8/hp2f5330EB7Ix8oRAPNnk31aXLbT7Hmuz8m/ndfZ859uL5nv+uDz+G75d5a1XmbKuQSLVyGGgj4br75I5r3v217mep2ebqW4FXXpKEulzcltL99K2rwcl9Y2W1+D4wOIzORTfAE6r0t/r/vnIttve4njH7f9252DPV0fHwAAAAAA/3IBFDdj+RwNnzj/3MqPX+FjdPDxc+kUUrfzWW7Gz8b7PMs56hcM3r9kPvE4muef1XGpdMjWCcYA9/fyXg2VnmXd62CJhRoQ6eL8uz4+MFTjDxKPiT3/HGjX/2Ur04ovbLSi6+MDAAAAAOCZ3wBKMv3UTf7+Frn8+Rf+vWAaqqTD9O9P+XUTkeC9ZMIj8T7PP+Xt74PPK9Eg/yr5/Td5I/Rxg08AADh4eR+Ndg1/gwEAAAAAALwGUJLpp26/5MdFRI4/JRz7UGXkw+9oxMVEPimrjsb7HOzboDW45d+zmsnuepXr9SrX6ymZomy2i/+W/7cs9fvmdWLGq5N5P9Fi59frVXYzEZntjJ/LnMtpVTiaKHus/L5MMt9R9p/bV8mxk8WTax6/H2znHm6mcvVVfrl81rZdy6so+zl+g/yL+Kt/fqjlVXTevsTHS46l1Ktkq1YIhuvWVa7XnXUh7vDzUV3NHDf9TqYcKp1H9ppY+r3kuOZrY7xVKotMG8ynpc9y9T3Z7NdPP+VnKK/Cz/vm5/hN8k/Ec/0DAAAAAMDAYwAlnX7q9utHNG3MUX7G025VmIbq8uOX3ERkkkRQ0um7MvGTdx9K9zU87vlno64h8/CBqJew42STWUhDRCSQxaFqZ3J97z7t5JQ5aCCL15Wsdtq5BAs5mE4i6vA5xKsXZ4TnXqcDerYz7CtYyMHSGRl25KWLJ2fVP35Veodxttwmssl1phnKcLYrOPdQsDgUdsQ5l9+Qecg/Xd369yhmu6tcD4v8ml2TTXH7iQIH+euWpO3AWu8Cef8yk13muBPZ7GYyXp2y5TDZ5NuPIuzE3mTXIZLo/CuVXRSIM+RBsDgU5EHUCW/MgDD9/e0AD889V98T0fXTmvH+ym+YXPNP1bT+AQAAAABg5y+Aokw/9etHOu/1MY0AFE5D9e/PReTyI5zGa/Ip7KhRpu968G5/5/yzyXRk3vby9tAZGchik+84UU2+tNOBEkwm+eMGC1kY+wOj+h0br+Rk6PDJqdp5P9tZOmJFRCbyReuIHK9OBZ9XBAs5DLoDKgyKmM7fqfyehj3/MmrWv0cRLA5Rum+yn0dr0IxGki5BtZCvpooz2ymBg7Os4/VrRiMZjeayj+dfnGysQYTJZiOT+LjxAd99kddFIHJeZ84jfUFBM9lEvxXZ85+nJyCbwutPIItDHIjLpqM4D8ayOsVBm+yx1fQHi4Pn4IFh1FVSDlGnvSGAayuD236unHe8raNRpMXBD7fyO8rSVmfuws/xXfIv1LT+AQAAAABQzFsAJTf9VCxZf8M0DdVYPsQrtoqIyCUzjddTT98VK8w/Xf6N/bRfbt3OgtKGqTKKtypvMbtLO2O0zpyGgahKbnuZq501yZ/n2Y4geScflHOYfVWDJ3oHora/yZeSUQDv5euXsNDP62gf832yBo6INpppvAo76RL68dXz7nMHlH7etvPX1lhSNSy/y3aaPaa+g5b5Ob6H/BOpX/8ezlnWo6moa2cfl2ke5ju/x7KK8iusf0vtZYGLbKdpnQwWX63Xz9v+W3jc+DcjCCSQs6yX4R5/V1pDLH/+l+00bRNVgofntYy0dKh58E5tPCIyXr1Gnd432c+zxw7Tn17D2wqAuwkDCOYF04+yVOq/nnaVn/IbIj/5l6hZ/wAAAAAAKJMLoIRTteid3mWd3+n0U/LvT7aTPh5VUrHjLJ3GaxXuUxk1kSyq/nD85V9O1Ck8ijphnsFtP1c6Y+KgXNtusv8WBqgyHV23vXwLe8XE2P81Xkncfyoicl7rHYjZzp/SQFowkUkQ5kFS5JetfFd7wZVO8HzwRj9+tgNLjJ3AzR2X2Q77bN+//jZ+uOWq8nEpI63TN3WUt0wELRv8SDUsv0fgJf8iNevfYznLOhcAEVGnYsyZfU2mTjt/twe4j29xG8yuEZY6y3dDAd72b4bzsbGdvzIS0nr80G0/t/zWpO0neK+WvvLbd/5uqYMX2cYVyGsAPAxOmYOPtoCiraO/gPobnkm7ykf5PahK+ReqX/8AAAAAACiXC6A0kkw/ZRotonRgV+k4S6bxWsgiUNcDUVTZz5B4yz+1wznqdG972qXLVqaGTib7Zu6g8+a8znVw3SXwpo8cSv5sqL+ql/eZqaMmGz1oec2tSVDeAZTvjMsGKuIy0EaAWdKgdmCJ9HkNIvNixva59RWWtJeW30NxyL+MqvXPlfl81enDjC8EtHU9rDLVpNZ2xkkD1Nb50l3+SHwVMwYwjcfOTgdZyriPSDISsti/P7bjKcEKtYO78LdPoYzELL38DZEx72uWH+rXPwAAAAAAKsgFUMzzUBd3fKWLlJs7geJRJfm3V1/kfa5vTh0x8BwdCM3zr4gyciBYyGvxvE/oSNqB6k/1t5a19qePfkpcJBODKg3k3VvckW5Y/BoV+M2/6vUPL3EDvP2V3/o/ZnQ8AkoJ4HidAkkJIJuDx9FWZY2ors12+fO+XuV6jdflQCHyDwAAAADQU7kASn3qFBymtyizb7Ab357VJAEDy1vhj8V//iWUqXMaTf+FAXqOoGNKXYAa9fnOv2erf09i/EH8h3ofRRSAVIc+oQbyDwAAAADQb+4BFGUKDplsDG8Pam8QGhehvclf9fXbeFqoNhY97xsv+WeXzJ3f1uLfPV1Efpjs8+5nNm9TkGhvtVun5tKn+ip7W/6OlDUkQvl1U+aZNTyQMej8Cxef1tuHuo6OcURlH39XSkd1paPFbpkfy/uzT5PUgDI12HmdL0vT5u3y58lspwQgz+vc+Y5Gc+ltE+oB8g8AAAAA0HfOAZR0+qmq6kxDZVOykPGAtJ5/yiiUyZeW5v5/ILn1RWa7BmtAVJddn6VkgXjv9Km5LAs0q0E+KZrq6/6yU6DdZD83TzMIM/KvW1UXZ5fZp6ST2WsAo6KyaSYba2tqsLuZyae4YM5rj8HtZ0H+AQAAAAD6zzGAokw/ddvLPPfmoLpFi5qr01DVnRak4kK2w+GYfxUlnXRtjELp2yLyrtQRPrNd+9OKHN8yb9cGi4Ncd+ZCGq9O3hfATjtwRUQCWRxOklkuZ7ySU2b9gZvs3/pTgsUBqHBqmDYDYENH/nXs+DO9rlsD3GNZfUl6mf0GMCqZyde4DtimmWzsKOnP09fhjU6scg+TG+WFBPkHAAAAABgAtwCK8mb67dePkrfS046SutNQPax75Z/SSW/vpHtWSr6KiMhENvF0Y20HT0RE5CLbeIhQzDKVWysd2VoAJwyiKMfVFm++7b/Jtrii3pcWVA0WByXPfK7tYRMvwK5sWr3RF8fOxsfGsjq5fN/x+J3n37M7ylvcAIOFHHIB0rGsTukUjud1iwFo0+/KeCWnpB6cZd3CCIFkmsno2muOH0ftxPyP3VFG0MjkSzb4zNoe5cg/AAAAAMAAOAVQ0mk9qi0cXHm6klKBqDMtjVcnawei3nl4yj6h5wULOegdkpktv4ZH0+PfL/+UTvo2RqEMXNqBZ3Zep6N/WnFcykhduOGuLrKdVpxj/ryWaa+iJ+EIqG9lJ38+t1t+Q0b+de6ynabrtuR+f9TgSdvrfyjB43hLAqgtTu922cpUuf7pv5l6PvTLUZZp4WWDz0rg6dxiA8rdf2TWTNOC8bkAXdff7z7/AAAAAAAo4xRAeUlWtf0lFfr/M287Tz7NRF7e11z/47E4518d6lQxm3wQ6KldtjI1LVQbTavWbqdl5LiUkbYAtu68bmsB7ItspyMZzS2BpHh6ubtkRH2X7dQcgErO+6f+L1CQf907LrPTNGZEC2u31fyOy4K2H193RtN2R55F17957iIcu8l+3tNr0HFpyb/onEdLefub/1dEyD8AAAAAQM/938vLy//0PwIAAAAAAAAAADwzpxEoAAAAAAAAAAAAj4gACgAAAAAAAAAAgIYpvAA0MJNdsshvE2dZj1palBoAAAAAAAAAPCCAAqABAigAusL1BwAAAAAA3AdTeAEAAAAAAAAAAGgYgQIAAAAAAAAAAKBhBAoAAAAAAAAAAICGAAoAAAAAAAAAAICGAAoAAAAAAAAAAICGAAoAAAAAAAAAAICGAAoAAAAAAAAAAICGAAoAAAAAAAAAAICGAAoAAAAAAAAAAICGAAoAAAAAAAAAAICGAAoAAAAAAAAAAICGAAoAAAAAAAAAAICGAAoAAAAAAAAAAICGAAoAAAAAAAAAAICGAAoAAAAAAAAAAICGAAoAAAAAAAAAAICGAAoAAAAAAAAAAICGAAoAAAAAAAAAAICGAAoAAAAAAAAAAICGAAoAAAAAAAAAAICGAAoAAAAAAAAAAICGAAoAAAAAAAAAAICGAAoAAAAAAAAAAICGAAoAAAAAAAAAAICGAAoAAAAAAAAAAICGAAoAAAAAAAAAAICGAAoAAAAAAAAAAICGAAoAAAAAAAAAAICGAAoAAAAAAAAAAICGAAoAAAAAAAAAAICGAAoAAAAAAAAAAICGAAoAAAAAAAAAAICGAAoAAAAAAAAAAICGAAoAAAAAAAAAAICGAAoAAAAAAAAAAICGAAoAAAAAAAAAAICGAAoAAAAAAAAAAICGAAoAAAAAAAAAAICGAAoAAAAAAAAAAICGAAoAAAAAAAAAAICGAAoAAAAAAAAAAICGAAoAAAAAAAAAAICGAAoAAAAAAAAAAICGAAoAALHZTq7Xa7idVjLW/70udX/Xk6ycd4hCvssPbu5d/yn/ejLlk992M/0LA3Pv+gcAcGP9XdpJn36SZrvovAb/Q9kT45WcorI+8WNdH/kH3MV/1R42x7I6pT9gxY0y+1n7Ps3Gq1OtH8z082UPRjPZWc7ffEzzpn+3+sNZevzi31m3/GtEueCWbblz91B/khsQ22bdbyrZR4XP5rikP6de+ZXXPXvdNzHvr94+6nItP/M5V/++yrwvU/qz5VRerlo9Uc/Ja/3RrynqpqdDq2tVt4L8rJ5/j2omu80k/d9gIa/2izp6h/J7bpQ/AKAb8T10pXt9GETPNervOJ7EWFavCwmi/wsWX5/o2dMH8g+4l//GH96l/xd8lM+mZ83xZ/kYt8gy+mdt+9RFnZCHhelAE9lchxDhD2Tx1fEcm+ZfR7zXH5NgIYdBlL8hrbY8qSyq+2Wd2BXajx64uhvX8ou+X3j+tdN/ke23vdziT3yxBxVis6/xjclN9t+2ctE/4CoOxFgfHCayKQzSOqidfwAAAMCTi158Mt9Do6rZ7iBxFt72cxmNRtq2lKP+JQAA7kibwiuQj4be3vHnj0lEs0zy2fNe9jex7jNjvJLTQemcnKs/lms5x5+bbJp3wha4bKfZH+h1ckQ5r7M/3tNtSbfp5FNxR3eJRvnnkZ5efVsW3rmYz7Vy/bntZa4fc552crdV/iq39LuUn17vRzIazaN9SHHneab9nGWd2UfafoLFod1OcOfy08892xaDxavf9F+28j39RymMfY5X8iWOa5y/i+0y0Lj+zHZyTdJg2Y+alyJhEGhq+FzB9Ws0GsloqgV/mubfQzrKUsk/ue3lm62w0UOU33Oj/Gs7Lq2/HwAA3MdMPiXPWevy/hY8mOyLjbf9G8GyWsg/4F6SAMrtfJabiAQfP2tvYo/l88dARM5yjp6rgvcvmU+k4s+KnH9u5cevsBnn96lSh5ydZT2aap2TR1mqHcmTL+ZO1M7d5HYTEZnIl8Yn2CT/+sFP/TG4bGU6iPKXFsov6iBPOjQCWbzqIyX09qO/nZNtP9YgRFtcy++4zKQ/H4xyS/9xmQYIJhv7KJ909MlZ1tYoSEPjlZySUSdhAMN4iMtWprnroyu3/HtIaoeiHmxC/1F+z43yBwBgWMYfJJ7T4vzT9BCEh3fZyjS6fyOA1gD5B9zFfy/vo3ee//6UXzcRCd5Lpns7npLo/FPe/mbff85Jpi+6yd/fIpc//8K/F01jNPuqDNe0RUvVqKqHabJa8U++R6+zN553sEn+dcxr/bG6yDYdKmDoRO+JtsrvuJQ0hqCNlFDaz3mtd37Hsu3n/vnnWH6//yZvVOSCb87pP8pbGt0xBz9nO4njG/ZrVHOZqcHmtjS0xDn/AAAAAAxasqajZcaDNr28T56F/v7W/xEAgH5QpvD6Hb0xP5FPSgdtPCVRlbcBkumLbr/kx0VEjj+jt7vtnW6zdLymfC+Kll5+hB304j5NVmuS9GbzsKom+dcf7vWnUFEnek+0WX7HN2W9DiWD1fZTmMVK+2k+IsZBS+XnI/2X7Xdlmio9+DmWVTx3VyvTwahD1u1Tg7XFR/4NXbzop20rnHVOM9vlv29f08ZR8qAbnWM0B3e4pQ+/mXM66SPYYtHCnfq5R1vVqduM6c9s+kP5THYlx8mWj/59/d/zW3H5qce35JnluFl+8s8H9dzveVwx5ltZ/XfPf7fy98t8LpZz99J+q+affXSlT7XSn+Gn/eTTXVb/VLZzqHL+/ty3/VatP7Y8cLh+e6n/WU3qX+Y7yv5z+yo5djf1p2r52dt/V+nX9194nVbqytVSz8Swz6Lj2+TzznJM7Zz068xkk99HcR7Wyz8YZK4h8Wav+ybmOlRSPzOy18Trtdr6n7bj3qv8fRzfto9c28kw5Fe8Vci3VMF+1E1rg3F7T85Rb9cVz8OW9jr5JwX7sZ9CQbrtXzIyX/uK24+v/AOGJrMGyuXHL7llOmjT6ZcynWvvPhhuAtLpi26/fkTTJhzlZzxtk7HTbSzJGuS3v1L8wsFF4hf6Rd7Jh/zOeiB9m73KotRZTfKvX9zqT3W3Xr6a0nL5qQHEJP+U9nP+aRk9EFPajz5K6M7qlp+6hk42EOcr/eq8+dooFHWExvcWpoOZfZIkhFEYwWiDr/xDfNNbua/Os3efdso0cCLxdH+rnXZOwUIO+s3sbCfXa7pwp0mwOBQ+CHSdfm9ewpv/fDoCWRwsDzEe8m/ovJV/k/zvg+ih0byAcHju+oO7yqn9qqz5N5FN4UO4I5f0e2g/rvUv7ASwnUPJ+T8Sa/1pt/0513+X+mcw2xn2FSzkYOlM6k39sZZfvfZ/j/SrLy6J9mKYLruOpuFlSw/lX3YNaXMNwCb5B1XUiWwsvLDul5ZdYR0KA2Jl7SesQ5vkmS4x2RSUX3jutuMm5V928MY8HL8k74LFofj7jqz5XtNsd82sRZq4R/mV5GGV+tdYFHg0Np+o/ZSef+P8A4YpCaD8+3NJO2njER7K9EvFnWvKZ+Umv36kNzfHtAfZMI3Ri8QzQMm/P6Wdk7+TKaAC8fgSu1dxECE31VKZRvnXH871p0wytDc6Vt+0Xn6mDuy0/VQJSqTtp4MAZMPyyzzI3fbylqlIHtN/fFPW+YhHoWRHn2SP7cc4jSB3MGTdY/49sfHqZL3pvZdgMsnftAYLWZhuiBuP4DStwdSP9PsRyGJjuPlX1H8xQmXOv6HzV/5t539Lxis5mR4adbbOX2/tt0L+Fazz1ZiH9Fdjbj+u9W+8Olk6DjTBQg4P3QlQof601P6c6r/v+qdM2ZqXn+a1P/WnQvlVaf93S3/6gpmIoVwTM/mqtm/9edJD+bteQ1w0z7+hM4y4STIi6nTW32Q3BkLGsjrFnec32c+j9c9GIxll1m882DugtTp0Xqv7CLfkHTubySaqQ9lzsE6/rbnt57ljjkbpGp0y2djP34Pmx5/JLsm7cA1PfT/FeXeUZebzypqpVcx2mT6Cubov9cDxv1nWxQsWh6gddlB+TvXPPf/SdqeXn7p+7cbQ9lKu+QcMzX9J/52IiFwy0zDVmX4pN31RLJm6xzCNkbJg2MO4bCVe7qHOw0aj/GuBcdhxsuk338ob7CJO9aeY0pGtj2bxrF76U52U32DaT9Xyi950ULb0d32dv/Hxmn51nZboITEZfXKT/TfzTZeubv1J1hDqgtf8a8g03Ldwy+ehq8t2mr1Ztd+p5o1X8qo9eOdupOvsz0X0gKAfLjwf5UbeGADTHzzjTf2e5Ecf9SD9TuVnkaZBexixBsIb5t/QtVT+dfK/jfKvI13DSoz1IHM6ky/WURRu7TdLLYPs/vIdoK78pD//vXAraT+u9S/3ff089OM/RydAnfbnTcP676f+xd7L1+heNenEmqfT54poo8l7Wn+at//7pj95wUwkeW7MUUZpi9xkr73J5Fz+uTQYriGjkcz1XkllsebRKH+dMXWC5p9h9GPr51+cfxAZr17T57T5VJsG+SLbaXoNM/fJjGX1mg0ALA3PqMel+e9ZZ1mPsudwXKZlaB5lFXaAmxf8PspSaX/vyn74G3E8vvIcaVtH87gcyag88xpRp6Fe6+3ruEzbZaXfri7Kz2f9qyv7kuh8pJffRbbT9Bqan+Jc1yT/gGHKTOElygiKyadVOCWR8uZ1sih2Tjp9UW4kScW586u8AW0/fr8k61VUumCLl/zri2b1p8B4JSdlaLPtB7pb9y6/8g4Uk0b578q1/OK3RjzcOZSm/7hUbhRe5RTfWNxlbZJ/UmNgTidK8+8JZaeWCB+azTfSbUuDfOlIobD9hOv2/Bb1zxnHpYy0m95UOi1lKHvt6U/6/bnt50oa4pcCCjjk39C1Uf61879L45Uk7waIyHmdrwfqA6T9RQqH9qvRyyB7fJ/3IZ7S79B+XOtfvvNVP49sB4g8QSdAN+2vYf33Uf9UwUQmQZgHyS2n8lJc+Jk0iNfH+qO3gVrt/97pV0Z+i6WDO+0glfwLah7KP5uGfP7FLtup8e8unPNv0MLO2UyAKQlC6YGkdMuWgfLsbX1OU16OM/XJqNM0130+zTjLOtcBLZIbaVWX2ofQxdQrNY5vDhC0qcI01MpLrMWn31H5eat/DVScojxdg9cS5BZpL/+AnsoFUNJpmBayCNT1HBS5t8Di6YtMow2UG3D9ewrjhWWokgtmIIsqr4t4yD9fjG/NJJvp4qhpUn9iwUIO+hvnybDG8IbKQz96oUbpv3v5NetsT6eLaolz+anDR6OHHo/D1qukP71RCCQIJDzvGnN3Nao/IrmOoT6qkn+16W/xlW5FeXhvysObiBSPrmqZ3rGQ/Nlw/bUyL0Zon9qiR+n35bzOdZJUDxzWzT9X5uOp04GEa0don/F0PW2l/J3yvwPK1JQithGI2bm5jfe6XtpvmH/531jtAdbbfYjH9ItY67O9/bjWP20EtaUMMuvPiTiv4Zcyp/d+7degq/ZnyfvS+u+1/sXya2wcl6Z7kK7rj4GX9n/P9GsBOr2DWw+Q6J18zuU/EzU+09ZUvWY+8s+FYQqtq/rMZplGq83rT12Fz96Kgk50dQRD0S5K2TrwVd7KrkfUAEHJWmX+KVOb26YATK4RJdNkd1R+3upfA+kzfcmxL38kzWZjLneWf0BX/svPIKPe0GTXc7BJ3wIzN8JkXZDC6GW5btcLqEN548E0ZFhzr/zzT1nDJlG//pQJO6X1N3P64z7lp0+Xlv1R67Nm5ae8eRUs5NXUiNpI/2Ur35RX4m77bzXPu57M25b31kb+PbMqN5C9FHfkOS7CONj0u/KUf0P3hOXfSlB5QPyk31P7qV3/tPtXffRwQumkkSod0LgXP/Uv67Z/q1iPHrP+3Dv92cXksyNE9MXj9ecr5/LXprEtDdh55Sf/npoSQDMHz/SgUIHbX+m0WylayDu/pTM4tKrx8bPTpOmBN+u6H56k0wBOZKMH99T1PWwBSl8a51+kg/qXTCFeemzLCFDgieVHoKgdvpUuOOoQSssDjBKhzkQv1Q68CpHJdL2AZm/g31UyNDk/ZDjLIf96ql79UegLgEVb/o2qPrlX+Sk324Yfu/K36u7QfnyXnzJ1QOG0A57Tr75xWWfBezf5N6PuyWf+PQ9TAHlo1AU463qE9Ltyyb+ho/zhyqX9UP/gm5+Xvoari/RnR8ik9/rZEWbVAzuoxjCF1khd88YyjZa+zgQcRS8QqEMP78rH8eO6pK3ZowS2WgukqNMA6rNgqIujt1ZvfeQfgKGJAijaiI54WpUqFxxlCKVMNoboqxaBzQyzU6KapW9VKENtlQ7kuwwvbyQdiVG48JJT/vWFQ/0ZunuVn7KQYvqWlPLgUbpfpf3YAj09lK4nZFo8cfjpT0cnuQTXmupB/vVgEfnmtLdyKrwE0DvKHLghdRq9cMstnpp4gPS7cso/V+HilXoHh7qWrWkxXH+/y5R/lqXDSd8av1HQlD5VTP4FDD8apN+p/bjWv6rfbyv/um6/j6ZB/XPSdf2pqq3j+0t/OnWupNN4qc9WlQI7DcpfG4Vd9qKWX/7y72klU3OVTZ+cbtbmX9oH1Y7ZTnmB4LzOne9opI7u8M/v8bO/aepv2WTTztRe49VreA9xO8vZcJ7hb2h7Uz97y7+O6p9IlWOnL6tUWa8aeAbGESjl0vn69UUcy6nTGKnTPZVMb2TsQC6e2zIj+X6VGzE/0qHJ9rS55d9Q9X+9h6ruU35jWSUTAWfrbzoFVMl+lfZTOFds3yijUEwLTA4+/er8xhWm+/Nt8PnXqQpTK4xXcurxm0nZKTBusp/XedDwn/7cSKjZrmANhO655d/Q+S//ocm+wFM22rgjepDCOlVMfa7pd2s/rvVP/75hgWHRO3L95t+juff127X+uRlI/Wmt/XtMf2adj3Dt0MyzlWWBcPfy14IYxhe12uIx/56VEgBruoB55WegVqgvpq09Bneravf4x6U6oqlJ+ywzk6/Rxe38fSlLw4gqfU0vv9zzr8v6p05/Vnhs5fn/frNyAP32X60ZRJVof0gZYmuZvifd0qF96pvWmTewN7a3i2eyU4biZRa4q7K4kdoBXXdaKSdHeYtCz5MvXzJzrYbc869T2vyxpXL1Z+juU37JGxaSX5NDnT/YFGAIKe3nrosk+pH8yBseboaffmW9JAlk8WpLQzs6z79BLyKv3oCKiExko45TH6/kVGXu5Q4Vd0CEQ9OLOsC8p18dCaXOX9xTrvk3dN7Lf2jU6SMkWkTVMlfFeHW6/wK8uTZ0k73PC7hj+l3bj2v9y34/kMVBe0s2tw/P+fdo7n39dqx/rnpff3Jl4Pf4/tKv3geLyGSTaffWl3acy19bxF7CKYdOhjeZZrurdd8i+edbe39Gyl/+Pat0FH3hTB8FMn1Q1megllTpQ9EDoD7d4/htrrVZ5fzbVOX4JfnXaf07/qzw/K++wJtfhwp4Vg1HoESUNyPKF1+zTBeTWbR5IpvcFC0z2SmLS57XegdaGqSQycZwgzSW1SmdQun8/b7D35MOyiDIP8j5yD90p+3yi6Y3Sh4kbnv5lnubQqn/wUIOhe3nJvtv963/XigPSfkf+QdI/3GZDnUOFnK4WoY6j1dysv1bYw+Qf07iBYyVTev00RenzDxDKzegItFvUPzZks67XtAe+oPFQUlrhbUJnNOfnf88vAcwl4OZY/m5cs2/oXMuf1cdl7/e8SdaHihbUSDAG/3YWl7oL2CE98cu+eeYftf241r/tA7YsBNTOW9tH/n8e3au129XjvXPVd/qj5720vbvyGf69bYcK3xpx738L9tvuSl2stehcCutzrmOYqUtxJveP+Ez/55UOv1bmN/m3/fod870j2ofVMHz12xn27cDtc7kZiC4w9oaHo4/Xp0KplZW1zhrYfYX9QXqCgFL7zzkX6f1T3/+169Pev9prv8VeF4NAyjhdFnpENtqF0bbcLHLdqrMlajfdKjBE/P8lZnv64tIKetP3PZz4/fDHwDlO8oFT394NL2ZUkx/wEj5yj+f9PTqm58LeMl0ay5y5a9vxT+yddLvt/y0G+dr9ub5tp9b576+bKfKPOG29nOT/Xw60Jtv5SHJOAqlP+mvU39Ux6U6X6yhLmj1wac+5d/wHGWZDFE3O6/zCyv2RuYFBovzueD8y9N/uxX9qzb/ucFj59/QlZd/r8vPh+NSRupk3311XrcznYVL+p3bj2v9u8h2WnGO8rbyb+A6v3671D9nA6o/rRzfZ/qVzjxF6ctpzuVfIw2FjrKsfR41jl2af0/qspWpku/mZzBlHVKDbB+U+fmrrB+8GbXO6MeNn73Ocq5brSrzdXz9uTGf7+e1+fkx1/+WWTNWC4bmOvjV87edQ7TZHr6d+Mk/l/rnln/V+09t/a/As/qv4Del1EuyqlDFabGUt830aYyycyVqoumRihrvcZmdJikj+n5XNx+2Bwyf+deJl/etdOgOxT3KL14Yr6zuXrZTa/0PF1Ez37wMhjrU1PCmySOkP7yGFTxM3fYybykdj5B/nblsZWoqtwq/W31w2U7NHRDxtITLn/q/ZJWkf/q9ZAB/yfcfPv+GbuDl58VxKSNt0VTded3RAuBJPWyxIBzS79x+nOvfRbbT8uePVvNvyJzz3wOH+ueu5/Wn9eP7S786nU1Im7Lbxrn8ozRY7oElvg8uS8NxWbgPM3/550Uyre6A7vmj8k9fBNPdZD8vzsPi56/w+wVfb+64tJR9dM6jpbxlFurxzPH4l+3U8v1ItLB6K3lXx2QjV8voDieO+RfrrP6V9Z/2pfyAnvm/l5eX/+l/7Fwy7ydvPQMAMFiZedj5TQf8yU5x23QhUwBD9GDtX1vz47afl748BuBJqdeLgmvfeHVKp/Ar+BwAVNVwCq+WJfMK6otKAgAAAACA4RvL6lWdprbi6BMAT2n2Nb5e3GRvXygpu87Ruw+5aawAoK5+BlCUdUOCxSG37kg7iykBAAAAAID2ZRcrFhEWLAbgx/izfIyvLf/+WKbxA4Dq+jmFl4jxhirrLOsRN1gAgKHRpt6obUC/f0zhhd55lPb3YFP4AE/B1/VnwO0/c1+gGVI6AHQiMzWX7Z5MmxaQxdAB+NDTESiSLKxmXhTsJvu54UL5VGayu17l2njLL8SNZ0L9AQAAANADBE+AEjy/iz41l0xkk0vnVa4ETwC0oMcBlNBlO5XRaKRtvMEKAAAAAMBw3WQ/HxE8AVBR+KL1aLSWaNZ/o/M67Dvk0gLAlx5P4QUAAAAAAAAAANCN3o9AAQAAAAAAAAAAuDcCKAAAAAAAAAAAABoCKAAAAAAAAAAAABoCKAAAAAAAAAAAABoCKAAAAAAAAAAAABoCKAAAAAAAAAAAABoCKAAAAAAAAAAAABoCKOif2U6u12u4nVYy1v+9LnV/15OsnHeIQr7LD47GsjpF5bGb6f8I3Xglp6j+noZ4sRj6+cMN5T9slN9zo/wBAACAXvqvWmen0gFXelOf/ax9n2bj1Unp7I63ndi6/dLPl3WMz2RnOX/zMc2b/t3qnfPp8Yv7MN3yb/hmsttM0v8NFvJqz1T0DuWHIRvL6nUhQfR/weKr9benn4Z+/nBD+XcpvpcsvscrQvk9N8ofAAAA6Kv/xh/epf8XfJTPpr7O8Wf5GN/Rl9E/a9unLnrr6rAwHWgim+sQ3p4OZPHV8Ryb5h8AAADub7ySV+P9KwAAAABg6LQpvAL5aOitH3/+mLwRVSb57Hkv+5tY95kxXsnpEL91dZP9fCSjUbyt5Rx/brJpJYhy2U6V441ktE6OKOe1ei4jmW4vme/mTD45vTHWKP8eylGWSv7LbS/fyvIcPUL5Ycgusv22l1v0f7f9mxy1T/Tb0M8fbij/YaP8nhvlDwAAAPRVEkC5nc9yE5Hg42dtyqixfP4YiMhZzlG/aPD+JfOJVPxZkfPPrfz4FT4G5PepUoesn2U9mkq2v/Uoy9E8CiaIyORLwTRZXbrJ7SYiMpEvjU+wSf49oOMyDVpNt0L3+8BQfhiyy1amVQPmfTT084cbyn/YKL/nRvkDAAAAvfTfy/tobMnfn/LrJiLBe8mER+Ippc4/5e1vHMWwSKafusnf3yKXP//CvxdNQzX7KvGsB/a3rdS3sjxMk9WKf/L9exhhajxvcZP8A9AvySKwRWsiAQC84/oLAAAAAPBMmcLrdzTiYSKflN7/eEqp809zaEOVTD91+yU/LiJy/BlNv2Wfhmr2KV5w+izfi962uvwIAzziPk1Wa5L0ZvOwqib59wjihVdtW51Z22a7/Pev6qLmPiUdNdE5znbKcdPOm8w5nVaW0URjWZ0M5x5tp4o9Qcb0Zza9U2kmu5LjZMtH/77+7/mtuPzU41vyzHLcLD/5N3iZOhhvhyRIXcr4/V3l662tLtTJf9s+rPXI1GGqtM3yc8i2gcxmPWgqrqvp/g37q7CfWO30m47X4LhibHfX0vLPpd+Q93XPo6rw2FG5Z46bnnMmPwvOw5bv5dcehbH9FOdDkueGf4slnzH+friVv6/y85J/Q6LnUzINrchko+dBUT56Lj/T/irsRxq2fxe0XzGXV8HxdLny1+tlxf14yT8AAADggWXWQLn8+CU3EZkkvf/p9F2Z+Mm7D4aHgHT6qduvH9G0PUf5GU/7ZZyGaizJGva3v/Jb+9esi8QDMkTeyYf8znrgKG/RXGOTL6YHpSJN8g+x+OGvrVhJmXefdnLKHDyQxetKVjvtnIKFHPSH2dmutJM7WBwKH2S7Tr83L+HDfz4dgSwOlk5kD/k3fFEnTD7jKir6/kQ2hQGItNPmYCmEYHEo78Qp2cdkYyn/jCiQpnRmxoLFwdKB5U/YDjeSy8XJprwj0kv6G4o6Do3FH5V/afnFnXmGvJfJpsW8D+T9y0x2meNOZLObyXh1yubnZGPIw7Du2/I9vvYUpj/utDRn4GA0Kz8P+QcvGl9/PLX/Zmi/vtB+AQAAgPYkAZR/fy7pKI94hIcyfVfp+BNl+qlfP9KRJMc0AmCYhupF4hnE5N+f0rUSfidTiAViXYalY3EQSoKF1JpprFH+QaJOA/vD330Ek0n+oTVYyML0PN54BFUYlNGrQR/S70cgi43h4V9RPzCpMuff8M1kl3Sa3WQ/j9afSTZlDSmjsaxOtu+n3w0WB0PnlYTHTzptzrLOHDvc1tFlzGq8kpPS8XNeN9iHBLI4xIG07Hkk3zVel4+yrJVfZsHiELXDbB7O0wW8ZGPOQMf0O57/bKd0HOrlp64/tikMogWLQ9QBm01/cd77MdlsZBIfNz7guy/yughEzuvMeaQviGTd9vNcno9G62gUqK3zVrT6r7cfbR+tcCz/iGv5Nc+/gVLWqhiNRjKap4t/m9rvaDSS0dJ0J+2v/Bpdfzy1fxe0X0ue10D7BQAAANr1XzICRERELplpvJym74r9/pusXZKbhmr8QTKHfwSXrURLodTq7G2Ufz6YhvsXbgVvMTZ02U6zD232nsK88Sp8yFbkHgTr7M/FbS9zQ0dneD7qQ7hpBJXpwV17gBUxrFHUffqdys8iTYPWmWANJDbMvwcw28XBj7OsR1MpmgnRZLx6jYION9nP9e9fZDtNy8B4TVOu4+f10hhsPy5tnYcSBnBeswEY00ePS/Pfc85rGY2y53FcpvXgXb7xeZQvg8t2ml4TjMFTz+mvZSyrL1Hn6W0vcy3fwvJPr2nl63vl06/mva3z04fb/lt43Pg3MwgkkLOso0xLX8DQhR2Y5gWbj7JUOsZNdae8/f0W66F7J5+G8vJzyz/4lC+/4uuP7/bfHO3Xh3waaL8AAACAH5kpvCQzjdcqnFLqtpe36IkqWdQ8J51+KjeSRFm7pGgaqtvf4gm8pPD4/XJ8ix44rJ29Ovf8e1ZJ4ClyXtseBNt2k/23rYTP/8rT9m0v38JeAftD+HEpI+ODu4g6LVwoG3zpT/r9ue3nShrioG4Bh/wbvpnEy0jd9m/G4EUx5dpz/m7Jw4ts46hwyTWtUQfL7Gsy/ZotAFPVbT+3BGrS9he0NnzxLOtcB2QoGUloWh/LY/prU4/9Pbx+mSS/aabzT9jSn05F2R7zGmrN2oRG/Q3O1R3X9tcnLZVfYf7BH1v5FVx/vLZ/F7Rfd7byp/0CAAAAPuQCKOk0XgtZBOp6HAr9Le5k+inTaBWlA1T/nuKhbsyTB45AFkVj5mMe8q8xfRqK0s30gNYVpfNXRERfq+ee9JFDyZ8N7cfKvJiofXquHqXfl/M6FwCqHjitm3+uLAvXJ9OBRHOH6/9unYu8gdmnZOotdeq/ygqvPQplJFzuUq12sDRYa2YW92B5qL///tjyIHyTejQqGgnjqGiqyyT/8nymv65xMgS15NiXPxK3QvNbzCXpjxnXT/PAeOyGbaIO1/bXJ8Y81LRVfo304PrbJ0XlZ7n+eG3/Loznfoc2RfsFAAAAUNF/yRokCfWN72oPFelb8OaHsGRdEMe319KHvZtUGLDSIeWN7cmX0s7Ee+Xfw6vyANlLcce/YfHXOgabflee8u8ZvbxPRjBNNobOxlynpEl2mi+947LyvOm3v9Lry7oLpQPSOkqng/S/xDcApccuGEH3KKKFtPNbvK4OCpF//WW5/jxU+6f+uSH/AAAAgEL5EShqh73lrfosdQoYSweu8oZy5u015aGuyptRycOe/BPri8Z9cXyLOhTL1i5xyL+n9yL5AODQqAt41/UI6Xflkn+ulFEN6pbMGW5Zl2VqnyqlrjSo3LU4L/IL7saBmcqBlEf0iOt9PYwoAJsspF1df9pfl5rnn5vur7+D8dDXn+b1j/YrTvkHAAAAPJMogKKN6IindaryoKlMASOTjeHtJe0NpswilspbbaXTU6VzFatvy1Wf3ufe0pE8hQtvOuWfBz1YRL457a3ICkG43lHmIA+Fi0irHT7zzBoeqgdIvyun/Bs+5+ufMrXLeW3obDRsxTNghQvSxp9NFi8WkcmmZGqv0t+Ax2CdZqzL9JceOw3WVlmvbEjSRaRF5LzO1ffRSB1dleXc/h6AS/7h/ozXnwG3f5f6R/t1yz8AAADgmRhHoJRLF2LWF7Eup05DpU4XVjI9VTJXsbauRNHc/KoO5jq+bL9Hb2Pb0+aWf8/uIpnnX1MnwHglpx6/WZd9A/Im+3mdNWb8pz+3FtFs1+IaIu7c8u8BVLn+5YJMCsvULr4cl+ob4ebReL+TKODjXtuKpmnsMv3WxaV1yu+vsQN2sJQXM87r+uvjuLY/lTUArpxj7zjmH+7Cdv0Zfvt3rH+0X7f8AwAAAJ7If7UGsOcWolSmn7rtZZ57c0nd0qld1Gmo0vU9RCYb2+iGmeySTuCzfFcXma60uOVYVl+i71ealsyXo7xFr25NvnwxTKHgnn/OBr2IvNoBICIykY06T9B4JafCtRu6l30DUu9gDqdWKApgeE+/OsJptuv9tA6u+Td4Zde/0gDaUeIqVDhSzoU6VaNB5jfgyyMu8DyTr3EdNEzT2Gn6jz/T3xXrsZXfT0MAaNCqTG1U1IHq3P4UpgB4p1MUVuCaf4+k5WB0cwXXn6G3f9f6R/t1yz8AAADgiTQcgRJRpp/KjAoxSjvqMp20l618S8aHT2STmyJqJjtlcejzWu/AT4MUMtnI9aQ/BI5ldUqnwDp/rzAtmUfJKJQgyHdk+8i/wYsXAFc27YFVX9w6s5aC0gEgEtWB+LN1gwdd0IKSweKgpLXCg7dz+pV6JRK1QXM5mDmWnyvX/Bu87PXvpM6RNdtFdeAm53M29K06vsUjRMKyN5fPWFanq1wN/zhenQqm9lM7kCyj/9TfgGAhh6t5qq/ZznZuPWG6Lo9Xckrq4VnWpjd8O02/Un+ChRzKfj9zv78Dpwb3Jl+0fK+yNkCV9ldMHQWQC4D3fQFn5/x7JOmUmsHikK0L99Do+jPw9u9c/2i/bvkHAAAAPI+GAZRwuHs6LYClY0xjmy7gsp0qc+UrHbhaJ+h5bZ5/P/P9YCGHzPfTB5jbfm78ftgBaO4A1jt/6z8U6x3UKV/599yOskymCDI7r/MLW/dGJoBocT4XnH95+m+3on9VO9DNHjv/hu+y/ZbMUZ4JIEXXsfN6Km9/s9/JuGxlqixWol/z9OuomX7dzn/vvJ6KOnhQlf0NCGRx0Pdzlbb6cXLX/8yaU9q6VLkORpUhD5IOuOLp5VzS73r+VX8/bb+/w3aUZZp4Ld/TjudzwQWkvP1l1wLKOb6lawyYAuDndeE6Tq7l78Y9/x7HRbbf0t/SbDA/2gwRUH/l1+z6M+z2717/aL9u+QcAAAA8i/8K+8RKvCSrSlacFkt5W1wfLp+dK18TTW9V9PB2XGanucqIvj+19d61zNZB7TP/ntplK1PTQpcV6k0fXLZTGZme0ONp3ZY/9X/JKkn/9HvRBErl33/4/PMtmRbPHjDw6yLbqaGTp075HZcyGo0KOnpusp+PjHOkX7ZT+7Vbwg6kUYXzCK/hhnookhy/bB99dF5Xqwtdpr/w97Ni+Q3WcWmpv1GdHy3lLVmnxsS1/Vm+X9DmesU5/zy7+/VXYfst7VCV68+g279z/bO0P9pvxfwDAAAAnsP/vby8/E//Y+eStRtusp8XP/gBKJFZy4Q2Bfg020WjQ1iEF0bKNEjUEXjG9adttF8AAAAAjafwalkyL6++KDQAAAAAAAAAAED7+hlAUdYNMS3G2c5iugAAAAAAAAAAAKGeBlBEjst0Hml9Mc7NRGSy2QkxFDQ3k11m4c66G/UPAAAAAAAAAB5ZbwMo8cKM5kWNb7KfL4WZiAEAGBoC2MBw0X4BAAAAPJceB1BCl+1URqORtrEINgAAAAAAAAAAaM//vby8/E//IwAAAAAAAAAAwDPr/QgUAAAAAAAAAACAeyOAAgAAAAAAAAAAoCGAAgAAAAAAAAAAoCGAAgAAAAAAAAAAoCGAAgAAAAAAAAAAoCGAAgAAAAAAAAAAoCGAAgAAAAAAAAAAoCGAAgAAAAAAAAAAoCGAAgAAAAAAAAAAoCGAAgAAAAAAAAAAoCGAAgAAAAAAAAAAoCGAAgAAAAAAAAAAoCGAAgAAAAAAAAAAoCGAAgAAAAAAAAAAoCGAAgAAAAAAAAAAoCGAAgAAAAAAAAAAoCGAAgAAAAAAAAAAoCGAAgAAAAAAAAAAoCGAAgAAAAAAAAAAoCGAAgAAAAAAAAAAoCGAAgAAAAAAAAAAoCGAAgAAAAAAAAAAoCGAAgAAAAAAAAAAoCGAAgAAAAAAAAAAoCGAAgAAAAAAAAAAoCGAAgAAAAAAAAAAoCGAAgAAAAAAAAAAoCGAAgAAAAAAAAAAoCGAAgAAAAAAAAAAoCGAAgAAAAAAAAAAoCGAAgAAAAAAAAAAoCGAAgAAAAAAAAAAoCGAAgAAAAAAAAAAoCGAAgAAAAAAAAAAoCGAAgAAAAAAAAAAoCGAAgAAAAAAAAAAoCGAAgAAAAAAAAAAoCGAAgAAAAAAAAAAoCGAAgAAAAAAAAAAoCGAAgAAAAAAAAAAoCGAAgAAAAAAAAAAoPm/l5eX/+l/BAAAQMtmO7luJvpfE+f1SJZH/a/tm+2uYjyt217m061c9L+jnzL16yb7+VS2bRaeejzqSrmetn9v7l3/AAAAgJb83//797//LQL9zyX0h6LxSk6HhVTZje1hIHlY1/ddhfPxZ7K7bsT+CJMyfz81Xp3kkMvQs6xHSzF+rfLDRXqORedQ+/g+uOR/pYftsaxOB4mTddvPZapkkrWjJ2bdb6rb+qfKprXsfMzlrapX9ub91dtHXa7lZz5nRcn3VeZ9mdKfLafyctXqiXpOXuuPfk1R6enQ6lpVBflZPf+AforrcKW25oO1vYbudh6xsutRQftHD1W+x/Qhfy+t369B07f279td6x+AZ3b3+zcAwNNhCi9fxis5Xa+GzkMRkYlsrlc5rcb6P2gCWXyd6X+sxsvx72/84V36P8FH+Ww6xfFn+WhKVlXBQg7Xq1x3DfP2nvS02vKksrDsr9edFKa+z/XHtfyi7xeef+30X2T7bS+3+BNfVlKwdxERmX2NOyVvsv/WQgdklAZ7Z8xENteTFGVDY7XzD+iZ2U6u1jr8LGayKwqeAAAA9An3bwCAO/lvOx3JaKRt63PygfPa8O8Fbx8aP69sbb8R4Hr8236e+07p9zNvbJ5lnfnOWuLcDBaH8k7Eyafijm4Tn8d35Jb/gXw0RAvGnz9W69C57WWuH3OednLLZNO8E74it/QraT3vZX8Ta57k3WQ/1483j/YhxZ3nfak/zuWnn3v2WhYsXv2m/7KV7+k/SmHsc7ySL3Fc4/zd+gZm4/oz28lV6fg07kfNS5EwCOTj+t80/wCIHJfW9ndv49WX7Ehc0zVZb/9A4ihLtf7e9vLN9mOHUI/aPwAAAAA7RqA4G8vqVe081KeqOcpS6ci2duLKTW43EZGJfDF/wMLX8bt1O5/lJiLBx8/am/xj+fwxEJGznKPnyuD9S+YThS5bmaqBhMmXXqY/FKdV5PxzKz9+hSedz5Oqog7y5IE8kMWrPlKi5/XHtfyOy0z688Eot/Qfl2mAYLKxj/JJR5+cZW2NgjQ0XskpGXUSBjCMh7hsZTryPX2GW/4B6I+X9+qrCmdZEyxBXWpAgPoDAAAA4EEQQHE1+6qsg6B3HsbU6X5MnbgiIv/ke/Q6e7D4au2IzfF2/G4kHTZ/f8qvm4gE7yUTHomntDr/lLe/2ffnq7vINh0q0Kv0ZyTTd93k72+Ry59/4d9dp/E6LiWNIWgjJQZRfxzL7/ffZORFLvjmnP6jvKXRHXPwc7ZL1ni57d8sx2guMzXY3JaGljjnHwA8kHgqRduITwAAAADA4BBAcTT7lL75/dPcexi6/AgDBFIwouD4M3qbfSKfKkZQvB6/U7+jERfZtMdTWp0LE1dBUSd6TyTTd91+yY+LWh/cO52Pb8p6HUoGD6b+tFR+PtJ/2X5XpqnSg59jWcVzd7UynclM0iTYpwZri4/8G7aZ7K5XuWodprNd/Lf8v2Wp3zevEzNencz7STpqr7KbhYE60+cy53LSR6BlZY+V35dJ5jvK/nP7Kjm2yFhWJ/3Y5cdvTMm/6zW/dtBko59HeRpyaW7z/A26PX6T8nNtP6omx38s+XzL1+ss9/w317l0K5x10zPzuVjO3cv1s2r+2Uen+lQr/Rm2thNupt8lk3y6y+qfynYOVc7fHzUNVdPdXNX6Y8sD7h9SXdSfquVnb/9dpV/ff+F1WrtXMtUzMeyz6Pg2+byzHNP7/Vu9/AMAPC8CKE7GkqyBfv5pefs6dpF4QEFulEUifZu9yqLU/o/frcuPX3LLdPCn03dlOmfffaiQN3a3v7/1P/VAOn3X7dePaNqLo/yMpy1z7XRWOrDT/Btm/albfuoaOtlAnK/0q/O+a6NQ1BEa31uYzmT2KVmzwDnIWJuv/HsgL+FDXb7PKJDFoeQh1cG7TztlGjcJj/e6ktVOO5dgIQfTSUQPo+YFOMNzL374zJrtDPsKFnKwdCSED82HpK1k1T/+3XnOv9oaHl/vrMjW24lscp0J5jrsrfwath9vxx+ouOMqn281Ncz/zjWs/zHn62fMmn9hWyr6qhOX9M92BW0nFCwOhR2JrvXv2dtvwlp/2m1/zvXfpf4ZDPb+wVp+9dr/PdKvvvgl2ot1uuw6pGf5rr+p5aH8y64hba6h2CT/AADPiwCKkxeJZ6Cq0qn7O5mC6p18sPwSx0GE3FRLRv6P35V/fy5pJ//kU3iTqEzfVdw5W8HL++QG8N8f793Y7pTpu379SM/vmEZQ3KbxMnZgD6j+NCy/zIPIbS9vmYrkMf3HN2Wdj3gUSnb0SfbYfoyTCEY47dt9ecy/hxDIYhNPp2ZWLTBeXzCZ5I8bLGRhehiNr6+x8UpOh+LzFinoPNEpU9bl5ae5G69OBZ9XBAs59PEh1nf+1dXx8f2VX7P24+/4wzRenSwdV3U1y//Oeaj/TtfPRIX8K1gnrTEP6a/GtIaee/179vabqlB/Wmp/TvXfd/0b7P1DhfKr0v7vlv70BT0RQ7kmZvJVbd/687iH8ne9hrhonn8AgGflPYBiHDaZbBVuHhzd9fjjDxJ3X3pz2Uq83EPpzXIbx3dUL/+VN9hFROSSmcbL2/Rdake2PprFs3rpT+Wm74olU1e5T+OV08P6Y1a1/PJvTCc3xud1fkFbr+lX12mJHnKS0Sc32X+rNvqkbv3JLvp8Z17zryF9GH/pls/DNtz282gh5XkSWBMRD4HQAre9zEejdL2j5M9zGY3WytuG2QBWuoaOhHV1Hi0AHW2Z/U2+WN9CDr2Xr1FbPa+jfczT6QNFtNF045W8Zh6c9eOr5x0+xJa/WFDRZStTJZ0jLeOS81c3/RriPf/q6/T4LZVf5fbT0vEHI5d+Ne+iTb8gVFA5/0Xksp06H8+Ft/rf8PppopZBdn/5DlBXftKf/1646e1HX6PQsf7lvq+fh378B2u/FnXanzcN67+f+hcb0P1Dgebt/77pT17QE0meu3OUUe4iN9lrb4I5l38uDYZryGgk80xD8HT/lju2fv7F+QcAeE7eAyhDFw5V1zvd/HS+JYuCl0jWq/B8s1z1+F1Kp/FahVNaKW/uNzr/8UpOytBc+0LXXUqn75J/f7I3eK2sHVHeAWDSKP9duZZf9FA4Wtb6llFp+o/L5GEhWLzKKQ763GVtkn9SY2BOJ0rz70Hc9nOZJgUeB4Xblgbp0pE+Yf0P1935LeqfE+OVJLFJETmvp7m6elyqD5ElgdxgIpMgzIOkySkvBYSfSTvh8g/f+vGPstQ6EIqmmrg73/lXl+Pxj8uCzg45y1rvgBiN0nJtqfzqtJ82jj8k2alVwk6jNO+aqZP/nXOs/6mG108DvQyyx/d5H+cp/celjEb574XSaYVD2XtH1/r37O3XpJv217D++6h/qge4f9DbQK32f+/0KyPnRcwvbabrHEr+BT8P5Z9NQz7/Ypft1Ph3F875BwB4St4DKMaof7LV7PxsoOvjF0mn2ymRdJoHsvD4ukPl4ztwzv9kGq+FLAJ1PRCF/hZcLFjIQQ96JUOLwzdLPPSjF2qU/mT6LtNoG+UBypbu2pp1trdef5zLT+3wi27aPQ67rpL+JPgpgQSBhOddY+6uRvVHJNex0UdV8q82/S200q0oDz04r3MPeXcJHOkPtsmfDddPlTI1nohtBNRGeQNRJHhfdhXKz5Gd7aiPy0AbgWhJQ2b9JnFfA8urVvKvhk6P30L51Wo/LRy/Fsuis8lvVjR3uv7vnn6PMi9eiEjx6MyKauV/D/iq/5a6U3r91J3XhnsUbaocb/dxHtMvIvqC5PFmn1rHtf513X7N6VWn8zG+UOet/Rp01f4seV9a/73Wv9iA7x+8tP97pl8L0OkvbeoBEn0dR+fyn4kan2lrqmMzH/kHAHhG3gMoQ2caOpq/cYlc/kg7t7bKdECmIa+x1o5/L+kaCin1hi67HkhTYae0/mZJf6Rv8ZkfQJN1cWxDrCvRp0sbTv1pVn7Km0PBQl5NjaiN9F+28k15peu2/1bzvOvJvC14b23kH+6qjaDWbf9WMUilXf/10XcJZf0mqdIBcT9t5F8d3R6/6/Lr+vg9o89N/wS6rf/d85P+OJCQ7eisrXb9o/0OnZ/6l/VM9w8m905/djH57AgRffF4/fnUufy1aYBLA3Ze+ck/AMDzIYDiSflbNep6BRVGACRDa/NDXk28H79DScDA9kaITTxdk7bl3wjqE+UtPtsDqPIGTPPhw8rN4u2v6Et+96L++C4/Zeh74bB5z+lX3xiss+C9m0AqJKE1PvMPQ+Yn6A3030W20/zvVTpnvT6ferTp87A3ZnoBBahjLKtT08AJ9Q++Pfv9Qxfpz46QSZ+VsiPMqgd2AAB4bARQnCg3HpNPJeujKENVbR3lGelIjGDx1bLvNo9/Tzf5q/box9PyeOto6DFl+i6ZbAzDn69yVdYAKS9nC2UhwPQtn0epP3bpekKmxf+Gn/50dJJLcK2pHuRfTxeRHyZLh6++NY5o6rR51a1TI+hTLeQDwP1w7/zT3fv4XZdf18fvWtX0P4t71/+q7lX/GqR/9jW9txQR07pHucWbE671r+r328q/oyz1vNHWgTLOSPAMzyWNNKh/TrquP1W1dXx/6U+nHpZ0Gi/12bRSYKdB+Wuj2MtedPPLX/4BAJ4LARRH6RQ6JdMrKR3Y+XUuzNKhtfZ9t3n8/ur/eg9V6YtwlispZ6OxrJKJbLM3wg9ff5RRKKYFEgeffnV+3qLp/loy+PzrmdxIntmuYA56d9n51auNdvRHnxpBm387lnmQL5pq4f66zb+uj991+XV9/K7p6TdMLTJeyUld1OHBdFv/K9KDFB7rn2v6s1Pw3GQ/r7NGmGv907//bO3XP+4flP+PdV1/Wmv/HtOfWecjXHs182x6/m6citi9/LUghvFFt7Z4zD8AwFMhgOJInT/U1EEbmskufoiotUjaUd6it78mX75k5gqNtXv8lmnzn5b6/Td9S+YhKEOkLdNXpVu0KHqDkQbj1WtyA6+vyTHo+lPRMR4mYbg5H376lfWSJJDFqy0N7eg8//q2iLwrdSTPbCdXa+eTJ8lUkaFgcZDrznx9Ga9O3hfQTdqmSFh/D6dsEHC8klOyKLeEnXxeK5BC+32ZbCqMVuo4/7o+ftfl1/Xxu5ZN/0Q2atnn0v6AOq7/pXLXcM/1zzH9xR2g4dooRR3wrvXv2duvd9w/9Kv+5MrA7/H9pV99jhCRySbT7q0vPTmXv7aIvYQL0Z8Mb4LNdlfrvkWa3b/5yz8AwDMhgOIsDXJIsJBDboqYmeySxRlvsv9Wb/h30kEZBJYHkXaPjxYpb7aUL55XZ7qkSDS9UXIjfNvLt9xrRE9Qf5Sb/Hwn/wOk/7hMp50IFnK4ag8BsfFKTrZ/a+wB8q9T2fmnRSayiacba7vzQyT/4Czhw3N+6rPijrTGtAfw8CFWOa7WAacHgL3SppPIlEW8GToA3PJvLKuT9lmt3Ceb7L9n+xBcj++o6/Lr+vhdO/5UFgDWyr6k89qPeAHypvXXVcf1X6cfW8uLfP3ruP1rnY7B4qB8p8LaKK7179nbrzPuH3pVf/S0l7Z/Rz7Tr7flWOFLT+7lf9l+09KgX4fCrbQ6N7l/85l/AICn4T2Aot/s61vpw1OwkIPhe+mmd9BlOR+/gct2qswTrP9oK52H82mDH1/9Bjmv3ePXc5/8b3HB7DvWv3SIdJX5ZdW3ZUzTJWk3ftfszd9tP7fO3dyn+tMO5SbfOAqlP+mvU39Ux6U6d7ehLmj1wac+5d8QZeafNjiv09FnrTguZaRO/H5XF9lO57kHaKPzWqatVqCjLJvkQ6f51/Xxuy6/ro/ftaMsk0XrzVq/fnSt0/pfQ1v1zyX9l618K2s853NB/XGtf8/eft1x/zCQ+tPK8X2mX3kZSlH6cp9z+ddIQ6Em9281jl2afwCAZ+E9gPKsLttpZpolVbgQYfPOw7IbZGn5+K15ed9Kh+5QvLyPUn/7JRXiJ5m3BatO43Veh1MXld34DbL+1KG8XWUa2v0I6T8uRzIaFTwM3PYybykdj5B/nblsZWoqt2haP29rrhY5LmWkLaCrO6/bWkD3ItvpSEa2jrh4esN7ZMRxaa3HhTrNv66P33X5dX18TTKt4J2ueX24fnSt0/pf4h71zyH9l+3U3AGanPdP/V+ynOtfz9rv0DjnvwcO9c9dz+tP68f3l/7Lj1/aPs7yvcqPmHP5R2kouPe67eflaWh0/+Yv/wAAz+H/Xl5e/qf/EQAAAABgok5RGb6lTEcb8CwerP1ra37c9vPSl+8AAHg2jEABAAAAAAB4KmNZvarT/FYcfQIAwJMhgAIAAAAAAPA0xrI6HURd5/28XsqAx9IAANAapvACAAADok2dUdtZ1iM6CIBuPEr7fbApfICn4Ov6M+D2P9vJdWPJgSGlAwCAO2MEytOaye56lWvjLb8QN54J9QcAAAAABo/gCQAAhQigAAAAAAAAPJWb7OcjgicAAJRgCi8AAAAAAAAAAAANI1AAAAAAAAAAAAA0BFAAAAAAAAAAAAA0BFAAAAAAAAAAAAA0BFAAAAAAAAAAAAA0BFAAAAAAAAAAAAA0BFAAAAAAAAAAAAA0BFAAAAAAAAAAAAA0//fy8vI//Y8A8DRmO7luJvpfE+f1SJZH/a/tm+2uYjyt217m061c9L/jMYxXcjosJBCR234u0y0l3a6Z7K4bMTU1Oa9l1EXjl6Lr0lnWo6V0dFYAAAAAADyd/1anq1yvNbfTSsbqXsYrOemfsWy7mfrF1Gxn2XcVzsefyc7wWdNm/n5qvDrlvnO97sT6tdlO+dxJVtbEp+dYdA61jw/0TFyHi+r5Q4uuZ8a+U/Sae90dy+o1DJ6IiASLr0917XbPv0cwltXpagmeAAAAAACAe2MKL1+iTs/DIu76Uk1kc73KyR4diQSy+Nqw58jL8YEORcFEcx1+FjPZRaMPMDDjlbw+dd111Fn+HWU5Gsko2eayv+mfuZ/Z7iBxNtz2c+W84o3RJwAAAAAA3NN/26n+cD6S0fqcfOC8Nvx7wfQxxs8rW9uzYbge39xhUfJ9ZcqVcHoN9TtriXMzWBzKgxiTT/XfOPZ5fODZHJfZdq5c/+5tvPqSnUrotpe5fh0quP5i6C6y/baXuP/+tn+js/ypzORTfAE4r5m+DQAAAACAHmAEijN1yhXT3ORHWSpvtAaLV8s0XTe53UREJvLF/AELX8cH0LWX9+ob+GdZEyx5PpetTKNgGR3oT2b8Qd5F/3n+SegMAAAAAIA+IIDiavY1mW7jvNaDFzH1reJAPn42RTD+yffv4Zvvtea993Z8AHgAyZpYRWtKAT308j56GeImf3/r/wgAAAAAALpAAMXRLJ1vQwpfGL38kF/xKJCPn8XYr3f8GU23NZFPFSMoXo8/SDPZXa9y1TpMZ7v4b/l/y1K/b14nJl7YOLefpKM2WvQ4WsND/1zmXE6rwrzPHiu/L5PMd5T95/ZVcuxk8eKax29Myb/rNb9o8mSjn0d5GnJpbvP8Dbo9fpPyc20/qibHHzC9/ipr1xjr7vUqV+Pq6NlrUPnns+KySq9dhv1V2I8Yy/0q1+uuekC/Dm/5p8hcg1s+f5OOj9+k/HL1Ry+XKvkeaXJ8AAAAAAD6jgCKk7F8SOfbsIz+iF3kz7/oP4P38qL9a+gob9FcW5MvxR3FId/HfwAvYeeP1hcvIoEsDlGgowXvPu3klDloIIvXlax22rkECzmYTiLqtDIvoB6ee1nwQDXbGfYVLORg6cwKO77+f3t3j5zItQUA+LyVYAevhoA9UJNYiTNYANEommgSVRGrisTRRHKkBYhsEjmZYg8EcjmwWcl7AdDdXLoRP926aPx9VZ3Iko64txvG53SfUw4v3nV6/DfX8vqd7Mz4acJx97wdxv1eMrL+HG5t/868flqLz0XWBbz73Tk6ERHD+8OJ7E3if3/fozwPmzb/KmyKRrUvYP331xXH25M5fkv7N3rYLWQVhveHr9+W4gMAAMA1UkC5yIfYjixYHdFv48+/t6OBf4r/NmQilt++r1tt9Sbx+dV8Q/vx37deTO5rkj8VxxWmTtcbDvfj9iYxqUsoDX/ZTWQO7uK5LmmVaiq+pEYPDYmsqJ2xM7h7PvD9Fb1JPB1KouXS9vqdKnP89vbvvOunvfjvTGVWSb/fj/64HP6+mFa+Xj1u68rc87jd+b5yZtUpepOnTQFvFY/j8veNi182jPu682/0UEn8L2La9LcM79stArS2foO4e94WjXZfe/Xv702eGguAlzk3fs0TW8U+bIqONQXUvT1oaf96k6fNdbz7Gqbrx2Kb/03SUnwAAAC4Vq0XUBpbb7y8HL4DtiVvGr8y8LU1y1lsRqHUJit3dBH/VHXtPg4eLe9Bg9XjeD+BExHR+xidjYBZPca4mnAqvjyOfn+6ac8WewWs0edq0jpNwCW/b/jplXZIP8fnT+tkVpGErCQmI5IWboO7+G3nsYE0fvXvPpBEO0eaQE0WrjaJWjNUvd31O13W+B3t39HXT0fxOdcipv2bqM6eX85uynMwLd7GIO427xfr9690jtYyZjflOXzSfK43Mrj7bfPk0yoex7uvff33l+fwq5+pZ8gbv+392z9/5rflNTzc6y3adnwAAAC4Pq0XUN673uSpJunfTvJ/WfTQOmz+dZPwTpOVFzo2/nu3ehzHTZEBWsa37fCXTq3i8cs6uV8+6bNOKn2ZLSPiz6h+uTC4i23+KSJiMU0TcLsJrIhefDx0UvSGMeyt16C4WbtSlFt/T9nCbT/5n8afx21SgNlPomXU9vqd6sL489sDxZa9u7nXR/Um/C7275Trp4v4nGsR070E9tr8jyIFvjtfa/S5aLu2+H2/OLlVfCalP5/dIH79WLyAvWtvbRmz7Rtgy5+pl8VfFxd2ru/iDSAtRJZHeW22vX9N5888itMn1Wp8AAAAuE6tF1Bq7xovjrr/OW9X7viHDIqBJa8oBr73YtLi7dpHxz9F+hTBq0fHe7CY7iaY3qpwtPoe32qyR6vv3xqTShER8eHnnZZJ9U9Q7c406P382gSbRfyerMFuon67B5UZOtH8GsrzceOn/7Z8F/UFOlm/E2SN38H+nXT9dBD/JDUtkF6qMxwa2iD9SG3Eqg7Nwfrz750i1lb5mbCIPxp/OCKWf8X2LLiqAtjg1yjqF4deQPH6e9Ha5Rf547e6f4fOn63k2m01PgAAAFyp1gso713ZuqbuSJL/laRAuyp3rB5q+dNZfN5KF0Wt1ePX1xNhETszdCIi4p+/Goo9y9jJoVeeYMmti/U7Rd74ufcvd3yOVvms+KnSP/BDOUQrDk/RaniCLrdKAbO+eJkW1VqWOX7u/csdHwAAAN6CAkpLjrmrvEg2xD/xV32msTT/uumbflzLodbj806t4nvtYwDwo6lpgdSvzvxpaINUM0fnh3cN87IAAAAA3iEFlItUeoPvDedNjeKXbR+fY1plVGYPNA9e7TL+ka50iPz71JDwTY/qEIyLJHcFN7ZWSls1vXa3cS5vvX6pt46fe/9yx+cc/9RVz199Kqh82mj19xXtXqU12eH2neXR2uUXVxB/K/f+5Y4PAAAAHVJAuVA5MPyV4aijX4o5CAd7pVcsZ79vhk83/+4u4/8b7T3JM3qIp+2U3A7szpc47mmj9qStlRoGLFf6/EccatX09vKuX+74ufcvd3yONfj146aF1O6sisbh8qnK50dtASaXhtZkbyZz/Nz7lzs+AAAAvAUFlAuVRY6I4aem4cSjeLjfpA9Wj/H16PrFPL6u+3jF8NOn2hYs3cY/wrUNkb9U9Ume0UO8bNetK0WrtrXe5CleHuozUYO759YHYJcJsIj10O3n3Zk7g7t43unfv4rHVk+gimTQ9fD+iKeVMq9f7vi59y93/KuSOZnebBSft0Xg9OnD+R9HfH4M4u5TUX4/PCz8EmetX/kUZvOTml3KHD/3/uWODwAAAG9AAeViZZEjepN42mtRNYqHl/vN3ZerePxyWv/9okDS6zUMoe02/o+v0gYtIiKGcb9tN9Z18SQiIpYx+33nD4gY3te0Pnvp5kmYpACwToJX4ibDj1ePX2LW1QlUSaCuVfZie+wVIC5dv0HcPSffm+x7Ohx6tz5yafwL5d6/3PGvStnSrDd5iuedStIbqGvjOLiL5+L9fxHTvf5RyefH3vU1iLvnpyjqL9MuC+Dnrd/863bmzfr9or5+ubnO6//jRfLGz71/ueMDAABA91ovoKTJxvR4NX/Qm8RTzc+VR1og2HVx/DMsZzcxLrKIadK3UrwY35yRPEwT/Pu6jf/jKxNg9RbTaXGXbSfmt9GfdhrhgGXMbsZJErzBYho3nZ5A87g9Zx2yrl/u+Ln3L3f8a7KM2ZfyvaQ3edr7/KlLoA/unpPvKxPOe8W4vQR1VfreXy1greJxXJ+8Xs5uojh99z5/q8nvjuZ3FM5bv1jO4qZy/dX/G6CypomL1//C+JfKvX+54wMAAEDXWi+g/FstZzfR79cn2leP4+j3zy9evJbgj47j//CWs7jp1ySBV48x7mrob2p+G/1+v0xE1VhM+9G/6eIJomXMbvrRHzecZ5t1aG/4+QHz28bz+KCs65c7fu79yx0/UbQVzPCe1/RektF6uPnhtZjf9puvu8W0u+HnqXPXb3P9lTcSpFbxOO7wHMwcP/f+5Y4PAAAAXfrPhw8f/pd+EQC4fqOHl7gfbhLVstQAAAAArfIECgAAAAAAQEIBBQAAAAAAIKGFF3CGUTy83Mcw/fLRFjHt1w+1Bo6nhRcAAABAdzyBAgCcYBQPLy/xcvbxEKP0VwIAAABcIQUUAAAAAACAhBZeAAAAAAAACU+gAAAAAAAAJBRQAAAAAAAAEgooAAAAAAAACQUUAAAAAACAhAIKAAAAAABAQgEFAAAAAAAgoYACAAAAAACQUEABAAAAAABIKKAAAAAAAAAkFFAAAAAAAAASCigAAAAAAAAJBRQAAAAAAICEAgoAAAAAAEBCAQUAAAAAACChgAIAAAAAAJBQQAEAAAAAAEgooAAAAAAAACQUUAAAAAAAABIKKAAAAAAAAAkFFAAAAAAAgIQCCgAAAAAAQEIBBQAAAAAAIKGAAgAAAAAAkFBAAQAAAAAASCigAAAAAAAAJBRQAAAAAAAAEgooAAAAAAAACQUUAAAAAACAhAIKAAAAAABAQgEFAAAAAAAgoYACAAAAAACQUEABAAAAAABIKKAAAAAAAAAkFFAAAAAAAAASCigAAAAAAAAJBRQAAAAAAIDE/wHrx2FMbyB9KQAAAABJRU5ErkJggg==;" vertex="1" parent="1">
          <mxGeometry x="-760" y="-295.68" width="876" height="285.68" as="geometry" />
        </mxCell>
        <mxCell id="m_MTwsGSsQdvvw59oVKy-3" value="PROYECTO" style="rounded=1;whiteSpace=wrap;html=1;" vertex="1" parent="1">
          <mxGeometry x="-340" y="182.84" width="120" height="60" as="geometry" />
        </mxCell>
        <mxCell id="m_MTwsGSsQdvvw59oVKy-4" value="CLIENTE" style="rounded=1;whiteSpace=wrap;html=1;" vertex="1" parent="1">
          <mxGeometry x="-340" y="370" width="120" height="60" as="geometry" />
        </mxCell>
        <mxCell id="m_MTwsGSsQdvvw59oVKy-6" style="edgeStyle=orthogonalEdgeStyle;rounded=0;orthogonalLoop=1;jettySize=auto;html=1;" edge="1" parent="1" source="m_MTwsGSsQdvvw59oVKy-5" target="m_MTwsGSsQdvvw59oVKy-4">
          <mxGeometry relative="1" as="geometry" />
        </mxCell>
        <mxCell id="m_MTwsGSsQdvvw59oVKy-7" style="edgeStyle=orthogonalEdgeStyle;rounded=0;orthogonalLoop=1;jettySize=auto;html=1;entryX=0.5;entryY=1;entryDx=0;entryDy=0;endArrow=none;endFill=0;" edge="1" parent="1" source="m_MTwsGSsQdvvw59oVKy-5" target="m_MTwsGSsQdvvw59oVKy-3">
          <mxGeometry relative="1" as="geometry" />
        </mxCell>
        <mxCell id="m_MTwsGSsQdvvw59oVKy-5" value="" style="rhombus;whiteSpace=wrap;html=1;" vertex="1" parent="1">
          <mxGeometry x="-300" y="290" width="40" height="44" as="geometry" />
        </mxCell>
        <mxCell id="m_MTwsGSsQdvvw59oVKy-8" value="EMPLEADO" style="rounded=1;whiteSpace=wrap;html=1;" vertex="1" parent="1">
          <mxGeometry x="-640" y="183" width="120" height="60" as="geometry" />
        </mxCell>
        <mxCell id="m_MTwsGSsQdvvw59oVKy-10" style="edgeStyle=orthogonalEdgeStyle;rounded=0;orthogonalLoop=1;jettySize=auto;html=1;entryX=1;entryY=0.5;entryDx=0;entryDy=0;endArrow=none;endFill=0;" edge="1" parent="1" source="m_MTwsGSsQdvvw59oVKy-9" target="m_MTwsGSsQdvvw59oVKy-8">
          <mxGeometry relative="1" as="geometry" />
        </mxCell>
        <mxCell id="m_MTwsGSsQdvvw59oVKy-11" style="edgeStyle=orthogonalEdgeStyle;rounded=0;orthogonalLoop=1;jettySize=auto;html=1;entryX=0;entryY=0.5;entryDx=0;entryDy=0;endArrow=none;endFill=0;" edge="1" parent="1" source="m_MTwsGSsQdvvw59oVKy-9" target="m_MTwsGSsQdvvw59oVKy-3">
          <mxGeometry relative="1" as="geometry" />
        </mxCell>
        <mxCell id="m_MTwsGSsQdvvw59oVKy-9" value="" style="rhombus;whiteSpace=wrap;html=1;" vertex="1" parent="1">
          <mxGeometry x="-450" y="188" width="50" height="50" as="geometry" />
        </mxCell>
        <mxCell id="m_MTwsGSsQdvvw59oVKy-13" value="FAMILIAR" style="rounded=1;whiteSpace=wrap;html=1;" vertex="1" parent="1">
          <mxGeometry x="-595" width="120" height="60" as="geometry" />
        </mxCell>
        <mxCell id="m_MTwsGSsQdvvw59oVKy-15" style="edgeStyle=orthogonalEdgeStyle;rounded=0;orthogonalLoop=1;jettySize=auto;html=1;entryX=0.25;entryY=0;entryDx=0;entryDy=0;endArrow=none;endFill=0;" edge="1" parent="1" source="m_MTwsGSsQdvvw59oVKy-14" target="m_MTwsGSsQdvvw59oVKy-12">
          <mxGeometry relative="1" as="geometry" />
        </mxCell>
        <mxCell id="m_MTwsGSsQdvvw59oVKy-16" style="edgeStyle=orthogonalEdgeStyle;rounded=0;orthogonalLoop=1;jettySize=auto;html=1;endArrow=none;endFill=0;" edge="1" parent="1" source="m_MTwsGSsQdvvw59oVKy-14" target="m_MTwsGSsQdvvw59oVKy-13">
          <mxGeometry relative="1" as="geometry" />
        </mxCell>
        <mxCell id="m_MTwsGSsQdvvw59oVKy-14" value="" style="rhombus;whiteSpace=wrap;html=1;" vertex="1" parent="1">
          <mxGeometry x="-550" y="70" width="30" height="30" as="geometry" />
        </mxCell>
        <mxCell id="m_MTwsGSsQdvvw59oVKy-17" value="MAQUINA" style="rounded=1;whiteSpace=wrap;html=1;" vertex="1" parent="1">
          <mxGeometry x="-360" width="120" height="60" as="geometry" />
        </mxCell>
        <mxCell id="m_MTwsGSsQdvvw59oVKy-19" style="edgeStyle=orthogonalEdgeStyle;rounded=0;orthogonalLoop=1;jettySize=auto;html=1;entryX=0.5;entryY=1;entryDx=0;entryDy=0;endArrow=none;endFill=0;" edge="1" parent="1" source="m_MTwsGSsQdvvw59oVKy-18" target="m_MTwsGSsQdvvw59oVKy-17">
          <mxGeometry relative="1" as="geometry" />
        </mxCell>
        <mxCell id="m_MTwsGSsQdvvw59oVKy-18" value="" style="rhombus;whiteSpace=wrap;html=1;" vertex="1" parent="1">
          <mxGeometry x="-315" y="90" width="30" height="30" as="geometry" />
        </mxCell>
        <mxCell id="m_MTwsGSsQdvvw59oVKy-20" style="edgeStyle=orthogonalEdgeStyle;rounded=0;orthogonalLoop=1;jettySize=auto;html=1;entryX=0.782;entryY=0.016;entryDx=0;entryDy=0;entryPerimeter=0;endArrow=none;endFill=0;" edge="1" parent="1" source="m_MTwsGSsQdvvw59oVKy-18" target="m_MTwsGSsQdvvw59oVKy-12">
          <mxGeometry relative="1" as="geometry" />
        </mxCell>
        <mxCell id="m_MTwsGSsQdvvw59oVKy-24" value="TELEFONO" style="rounded=1;whiteSpace=wrap;html=1;" vertex="1" parent="1">
          <mxGeometry x="-640" y="370" width="120" height="60" as="geometry" />
        </mxCell>
        <mxCell id="m_MTwsGSsQdvvw59oVKy-27" style="edgeStyle=orthogonalEdgeStyle;rounded=0;orthogonalLoop=1;jettySize=auto;html=1;endArrow=none;endFill=0;" edge="1" parent="1" source="m_MTwsGSsQdvvw59oVKy-25" target="m_MTwsGSsQdvvw59oVKy-24">
          <mxGeometry relative="1" as="geometry" />
        </mxCell>
        <mxCell id="m_MTwsGSsQdvvw59oVKy-25" value="" style="rhombus;whiteSpace=wrap;html=1;" vertex="1" parent="1">
          <mxGeometry x="-600" y="305.68" width="40" height="40" as="geometry" />
        </mxCell>
        <mxCell id="m_MTwsGSsQdvvw59oVKy-26" style="edgeStyle=orthogonalEdgeStyle;rounded=0;orthogonalLoop=1;jettySize=auto;html=1;entryX=0.152;entryY=1.012;entryDx=0;entryDy=0;entryPerimeter=0;endArrow=none;endFill=0;" edge="1" parent="1" source="m_MTwsGSsQdvvw59oVKy-25" target="m_MTwsGSsQdvvw59oVKy-12">
          <mxGeometry relative="1" as="geometry" />
        </mxCell>
      </root>
    </mxGraphModel>
  </diagram>
</mxfile>
